<?xml version="1.0" encoding="utf-8"?>
<!-- Generator: Adobe Illustrator 21.0.0, SVG Export Plug-In . SVG Version: 6.00 Build 0)  -->
<svg version="1.1" id="Calque_1" xmlns="http://www.w3.org/2000/svg" xmlns:xlink="http://www.w3.org/1999/xlink" x="0px" y="0px"
	 viewBox="0 0 600 600" style="enable-background:new 0 0 600 600;" fill="#fff" xml:space="preserve">
<g>
	<path d="M443.9,255.5c0.4,10.1-4.2,17.9-11.3,24.5c-0.7,0.6-1.5,1.2-2.2,1.9c-5.6,5.1-12.5,6.9-19.8,7.1c-3.8,0.1-7.6,0.1-11.4-1.1
		c-6.5-2-11.5-5.9-15.7-11.1c-2.1-2.6-4-5.4-5.6-8.4c-1.1-2-1.5-4.3-1.9-6.5c-1-4.9-1.8-9.9-2.6-14.9c-0.1-0.4-0.1-0.9-0.3-1.2
		c-3.6-7.1-8.3-13.3-15.4-17.2c-8.6-4.7-17.8-5.8-27.1-2.4c-7.5,2.8-12.2,8.6-15.3,15.6c-3.5,7.8-3.5,15.8,0.5,23.5
		c3,5.7,7.7,9.5,13.3,12.4c6.3,3.4,13,3.6,19.7,1.8c3-0.8,5.6-2.7,7.7-5c3.1-3.4,5.9-7.1,6.7-11.7c1.9-10.7-1.7-19.2-11.9-24.6
		c-4-2.1-8.1-3.1-12.6-2.6c-5.8,0.6-9.5,4.1-12.2,9c-2.9,5.5-2.9,11,0,16.4c1.9,3.5,5.2,5.4,8.7,7c2.7,1.3,5.4,1.4,8.3,1
		c3.4-0.4,5.8-2.2,7.1-5.3c0.8-1.7,1.3-3.6,1.6-5.5c0.2-0.9-0.2-2-0.5-3c-1-3.2-2.5-6.1-5.7-7.6c-1.8-0.9-3.7-1.1-5.7-1
		c-0.4,0-0.8,0.2-1.2,0.3c-2.4,1.1-3.1,3.2-3.3,5.5c-0.2,1.9,0.8,3.4,2.4,4.4c0.8,0.5,1.6,0.8,2.5,1.1c1.2,0.5,2.3,2,2.1,3.2
		c-0.2,1.4-1.6,2.5-3.1,2.5c-3.2-0.1-5.6-1.4-7.3-4c-1.8-2.8-3.2-5.7-2.8-9.1c0.5-4.5,3.2-7.2,7.3-8.7c7.4-2.8,15,0.3,18.7,6.9
		c2.4,4.3,3.3,8.8,2.4,13.7c-0.5,2.9-2,5.2-4.1,7.1c-3.7,3.4-8,5.8-13.2,5.8c-7.9-0.1-14-3.6-18.3-10.2c-4.7-7.2-5.6-14.8-2.1-22.8
		c2.3-5.1,6.5-8.2,11.4-10.7c8.9-4.7,24.1-2,31.2,7.9c4.1,5.6,6.8,11.7,7,18.7c0.1,7.3-2.5,13.5-7.5,18.9c-12.6,13.4-33,12-44.5,0.1
		c-5-5.2-9-11-10.3-18.2c-2.3-13.3,1.4-24.5,12.1-33.1c4.7-3.8,9.8-6.6,15.9-7.4c5.9-0.8,11.7-0.4,17.3,1.6c2.9,1,5.9,1.9,8.7,3.2
		c4,1.9,8.2,2.1,12.5,2c11.1-0.3,19.2-5.7,25.7-14.3c4.2-5.5,5.9-11.7,5.7-18.5c-0.2-6.5-2.3-12.2-6.8-16.9
		c-3.3-3.5-7.4-5.9-11.8-7.7c-10.5-4.1-24.4-2-32.2,10c-1.7,2.6-3.6,5.2-4.1,8.4c-0.7,4.1-0.8,8.3,0.4,12.4
		c1.8,6.2,6.3,10.1,11.9,12.8c0.4,0.2,0.9,0.4,1.4,0.6c9.4,4,18.4,1.9,25-5.7c3.2-3.7,5.2-7.8,5.1-12.9c-0.1-5-2-8.9-5.9-12
		c-4-3.1-8.5-4.6-13.6-4c-5.6,0.7-9.4,3.7-11.9,8.6c-2.5,4.7-1.5,10.2,2.4,13.9c2.1,2,4.7,2.7,7.4,2.2c2-0.3,4.1-0.9,6-1.7
		c2.2-0.9,3.3-2.7,4-5.1c0.6-2.3,0.1-3.9-1.5-5.3c-1.9-1.5-4-2-6.3-0.7c-0.9,0.5-1.7,1.1-2.6,1.7c-1.4,1-3.8,0.3-4.1-1.3
		c-0.2-1.3-0.2-2.6,0.7-3.7c0.5-0.5,1-1.1,1.6-1.4c3.5-2,7.2-2.6,11-1.5c4.1,1.2,6,4.3,6.9,8.2c1.2,5.2-0.4,9.4-4.6,12.7
		c-3.9,3.1-8.4,4.7-13.4,4.3c-5.7-0.4-9.6-3.7-12.5-8.4c-4.8-7.8-3.2-16.7,3.7-22.5c4.6-3.9,9.8-6.4,15.9-6.5
		c7.6-0.2,13.6,3.1,17.9,9.3c1.6,2.2,2.9,4.7,3.9,7.2c0.7,1.8,0.6,3.9,0.7,5.9c0.6,8.9-3.5,15.3-10.5,20.4
		c-8.8,6.4-18.3,7.8-28.4,3.9c-6-2.3-10-7-13.4-12.4c-6.6-10.6-5.4-26.4,6.2-36.2c3.2-2.7,6.7-5.2,10.6-6.8c2.9-1.2,6.1-1.9,9.2-2.3
		c8.6-1,16.7,0.6,23.6,6.1c7.9,6.2,12.8,14.2,14.1,24.3c1.1,8.9-1.5,16.7-6.7,23.8c-3.4,4.7-7.7,8.5-12.2,12.1
		c-6.8,5.3-10.5,12.4-11.4,20.9c-0.5,5.2-0.3,10.3,1.2,15.3c2.9,9.3,9.4,15,18.2,18.4c8.9,3.4,17.5,2.2,25.3-3.1
		c5.8-4,9.3-9.9,11.1-16.5c2.3-8.4,1.2-16.6-4.5-23.6c-3.2-4-7.5-6.7-12.4-7.8c-12-2.9-20.6,2.1-25.6,12.3c-1.4,2.9-2.4,5.8-2.3,9
		c0.3,5.9,1.8,11.5,6.1,15.8c4.8,4.7,10.5,5.5,16.8,3.3c4.4-1.6,8.2-3.9,10-8.5c0.6-1.5,0.8-3.2,1.2-4.8c0.7-2.8,0.6-5.5-0.3-8.3
		c-2.1-6-9.2-9.7-15.2-7.8c-2.4,0.7-4.2,2.4-5.2,4.6c-0.9,1.9-1.8,3.8-1.9,5.8c-0.2,2.8,0.6,5.6,2.9,7.5c1.7,1.4,5.4,1.2,6.9-0.3
		c1.4-1.3,2.5-2.8,1.7-4.9c-0.2-0.5-0.2-1.1-0.3-1.7c-0.2-1.6,0.6-2.9,2.1-3.3c1.7-0.5,3.1,0.1,3.7,1.8c0.9,2.1,0.8,4.4,0.5,6.6
		c-0.7,4.6-3.7,6.9-7.9,8.3c-7,2.5-15.4-3-15.6-11.2c-0.1-2.2-0.1-4.5,0.4-6.6c1.2-5.9,5.2-9.5,10.4-11.8c5.9-2.5,13.3-1.6,17.8,3.2
		c7.6,8.1,8.2,20.1,2.8,28.3c-3,4.5-7.4,7-12.2,9.1c-3,1.3-6.1,1-9.1,0.9c-6.4-0.1-11.4-3-15.3-8c-6.7-8.9-8-18.6-4.1-28.9
		c2.2-5.8,6.8-9.6,11.7-13.2c8.2-5.9,24.5-5.4,32.5,2c4.4,4.1,7.4,9,9.6,14.5c0.5,1.2,0.9,2.4,1.1,3.6
		C443.4,250.3,443.6,252.9,443.9,255.5z"/>
</g>
<g>
	<path d="M264.4,83.9c-2.1,2.2-4,4.3-5.9,6.4c-0.3,0.3-0.6,0.6-0.9,1c-4.1,4.9-9.1,9-13.6,13.6c-10.9,11.2-22.1,22.2-33.2,33.3
		c-0.4,0.4-1.1,0.7-1.7,0.7c-15.7,0-31.4,0-47.1,0c-1.5,0-1.6-0.1-1.6-1.6c0-15.5,0-31,0-46.6c0-0.7,0.2-1.3,0.7-1.8
		c3.7-3.6,7.3-7.3,10.9-10.9c0.2-0.2,0.4-0.4,0.7-0.6c1.7-1.5,1.8-1.5,3.4,0.1c1.8,1.8,3.6,3.5,5.4,5.4c1,1,0.9,1.1-0.1,2.2
		c-2.9,3-5.7,6-8.6,9.1c-0.3,0.3-0.5,0.9-0.5,1.4c0,10.1,0,20.3,0,30.4c0,0.3,0.1,0.6,0.1,1c0.4,0,0.8,0.1,1.1,0.1c10,0,20,0,30,0
		c0.6,0,1.4-0.3,1.9-0.7c3.1-2.8,6.1-5.7,9.1-8.7c7.8-7.7,15.5-15.4,23.2-23.2c5.3-5.3,10.5-10.6,15.7-15.9c0.7-0.7,1.4-1.4,2.3-1.9
		c0.3-0.2,1.1-0.3,1.4,0C259.7,79.1,262.2,81.6,264.4,83.9z"/>
	<path d="M185.6,11.2c7.8,0,15.6,0,23.4,0c0.5,0,1.1,0.1,1.4,0.4c3.7,3.6,7.5,7.3,11.1,11c1.9,1.9,1.8,2.3-0.1,4.2
		c-1.8,1.8-3.7,3.5-5.5,5.3c-0.6,0.6-1.1,0.5-1.7-0.1c-2.6-2.7-5.2-5.3-7.9-7.8c-1.2-1.2-2.7-1.6-4.5-1.6c-9.3,0.1-18.5,0-27.8,0
		c-1.9,0-2,0.1-2,2c0,9.7,0,19.4,0,29.1c0,0.8,0.2,1.4,0.8,2c8,8,15.8,16.1,23.8,24.2c7,7,14,13.9,21,20.9c1.6,1.6,3,3.4,4.5,5.1
		c0.7,0.8,0.8,1.6,0,2.3c-2.2,2.2-4.3,4.3-6.5,6.4c-0.5,0.5-0.9,0.3-1.3-0.2c-3-3.1-6-6.2-9-9.3c-5.2-5.2-10.5-10.4-15.7-15.6
		c-3-3-5.9-6.1-8.9-9.2c-2.1-2.1-4.2-4-6.3-6c-4-3.9-7.9-7.8-11.8-11.7c-1.6-1.6-2.3-3.3-2.3-5.7c0.1-14.6,0-29.3,0-43.9
		c0-1.8,0.1-1.9,2-1.9C170.1,11.2,177.9,11.2,185.6,11.2z"/>
	<path d="M225.3,125c2.5-2.5,5-4.9,7.5-7.4c0.6-0.6,1-0.7,1.6-0.1c3,2.9,6,5.7,8.9,8.5c0.6,0.6,1.3,0.9,2.2,0.9c10,0,20,0,30,0
		c0.4,0,0.9,0,1.5,0c0-0.5,0-0.9,0-1.3c0-10,0-19.9,0-29.9c0-0.6-0.3-1.4-0.7-1.9c-6.6-6.7-13.2-13.3-19.9-20c-6-6-12-12-17.9-18
		c-4-4-7.9-8.1-11.9-12.2c-0.7-0.7-0.8-1.2,0-1.9c2.1-2,4.1-4,6.1-6.1c0.6-0.7,1.1-0.7,1.8,0c3.7,3.6,7.4,7.2,11,10.8
		c10.3,10.2,20.5,20.4,30.7,30.6c3.8,3.9,7.5,7.9,11.3,11.8c0.7,0.7,1,1.5,1,2.5c0,15.2,0,30.4,0,45.6c0,1.7-0.1,1.8-1.8,1.8
		c-15.1,0-30.1,0-45.2,0c-1.3,0-2.4-0.5-3.3-1.3c-2.8-2.5-5.5-5-8.2-7.7C228.4,128.4,226.9,126.7,225.3,125z"/>
	<path d="M275.1,74.1c-2.7-2.6-5.3-5-7.9-7.3c-0.6-0.6-0.6-1.1,0-1.7c3-3.1,6-6.1,9-9.3c0.4-0.4,0.7-1.2,0.7-1.7
		c0-9.9,0-19.8,0-29.7c0-1.4-0.1-1.6-1.6-1.6c-9.9,0-19.8,0-29.6,0c-0.8,0-1.8,0.4-2.5,0.9c-1.5,1.2-2.9,2.5-4.3,3.9
		c-2.5,2.5-4.9,5-7.4,7.5c-4.6,4.8-9.3,9.6-13.9,14.3c-1.3,1.3-2.8,2.4-4.1,3.7c-4.7,4.8-9.2,9.6-13.9,14.3
		c-2.3,2.3-4.8,4.3-7.3,6.6c-2.3-2.3-4.7-4.6-7.1-7c-0.7-0.7-0.6-1.2,0.1-1.9c3.6-3.6,7.1-7.4,10.7-11c11.3-11.3,22.6-22.7,34-34
		c2.8-2.7,5.6-5.4,8.5-8.1c0.5-0.5,1.4-0.7,2.1-0.7c15.2,0,30.4,0,45.6,0c0.2,0,0.5,0,0.7,0c1.3,0.1,1.6,0.3,1.6,1.6
		c0,6.2,0,12.4,0,18.6c0,9.1,0,18.2,0,27.4c0,0.7-0.2,1.5-0.7,2C283.6,65.3,279.4,69.6,275.1,74.1z"/>
</g>
<g>
	<path d="M347.2,81.8c-1.7,2-3.2,3.8-4.9,5.5c-0.2,0.2-0.8,0.3-1.2,0.2c-7.5-1.4-13.9,1-20,5.6c2,1.8,3.9,3.5,5.9,5.1
		c2.9,2.4,6.1,4.3,9.6,5.6c4.5,1.7,9,1.9,13.5,0.2c2.2-0.9,4.4-1.7,6.9-2.7c0.8,2,1.7,4,2.5,6c0.1,0.2-0.2,0.7-0.4,0.9
		c-4.4,2.6-9,4.4-14.2,4.5c-7.1,0.2-13.3-1.9-19-5.8c-5.5-3.8-10.5-8.1-14.6-13.4c-0.7-0.9-0.7-1.4,0.2-2.2
		c5.4-5.2,11.4-9.4,18.9-11.2c5.3-1.2,10.5-1.1,15.5,1C346.2,81.3,346.5,81.5,347.2,81.8z"/>
	<path d="M401.2,94.6c2-0.9,3.9-1.8,5.9-2.7c0.5-0.2,0.9-0.3,1.2,0.3c2,4,3.8,8,4.3,12.5c0.7,5.5-0.6,10.7-2.9,15.6
		c-2.9,6.3-7.3,11.5-12.2,16.3c-1.4,1.3-2.8,2.5-4.3,3.7c-0.8,0.7-1.5,0.6-2.3-0.3c-4.2-4.7-7.8-9.7-9.9-15.7
		c-2.1-5.8-2.2-11.7-0.4-17.6c0.2-0.7,0.6-1.4,1-2.2c2,1.6,3.9,3,5.7,4.5c0.2,0.2,0.4,0.6,0.3,0.8c-1.6,5.9-0.2,11.4,2.7,16.6
		c0.7,1.3,1.6,2.5,2.5,4c0.6-0.6,1.1-1,1.5-1.5c3.4-3.5,6.4-7.4,8.6-11.8c2.7-5.7,2.9-11.4,0.5-17.2C402.8,98,402.1,96.4,401.2,94.6
		z"/>
	<path d="M391.5,43.7c4.5-2.8,9.1-4.5,14.3-4.9c9.4-0.7,17,3.2,23.9,9c3.2,2.7,6.2,5.7,9.2,8.6c0.8,0.8,1.4,1.8,2.1,2.8
		c-2.9,3-6,5.5-9.4,7.6c-5.2,3.2-10.9,5.3-17.1,5.2c-3.1-0.1-6.1-1.1-9.2-1.7c-0.3-0.1-0.6-0.3-1-0.6c1.1-1.4,2.3-2.5,3.2-3.9
		c1.1-1.7,2.3-2,4.3-1.7c6.9,0.9,12.9-1.4,18.4-5.7c-1.1-1-2.1-2-3.1-3c-3.1-2.8-6.5-5.3-10.4-7.1c-6.5-3-13-2.8-19.3,0.7
		c-2.8,1.5-2.8,1.5-4.1-1.4C392.7,46.3,392.1,45,391.5,43.7z"/>
	<path d="M350.1,56.8c-1.7,0.9-3.5,1.7-5.2,2.6c-0.9,0.4-1.4,0.2-1.9-0.7c-5.9-10.3-5.7-20.5,0.2-30.6c3.8-6.6,9-12,14.8-16.8
		c0.3-0.3,0.7-0.5,1.2-0.9c1.7,1.9,3.5,3.8,5,5.7c4,5,6.8,10.6,7.5,17c0.5,4.2,0.5,8.4-1.4,12.4c-0.2,0.4-0.4,0.7-0.7,1.3
		c-1.6-1.2-3-2.5-4.5-3.5c-1.1-0.7-1.5-1.5-1.2-2.9c1.7-7.3-1.4-13.2-5.3-18.9c-0.1-0.1-0.2-0.1-0.3-0.3
		c-5.1,5.4-9.9,11.1-11.7,18.7c-0.9,3.8-0.3,7.4,1.1,11C348.4,52.8,349.2,54.7,350.1,56.8z"/>
	<path d="M393.6,96.8c-1.7-1.6-3.5-3-5.1-4.6c-0.2-0.2-0.2-0.8-0.1-1.1c0.4-0.6,0.8-1.1,1.4-1.5c5.8-4.5,12.1-7.9,19.3-9.6
		c6.7-1.5,13-0.3,19.1,2.6c4.9,2.4,9,5.8,12.8,9.8c-6.9,8.4-14.7,15.6-25.4,19.1c0-2.8,0-5.4,0-8c5-2.3,12.7-8.1,14.4-10.7
		c0-0.1,0-0.2-0.1-0.2c-4.3-2.9-8.8-5.1-14-5.6c-4.7-0.4-8.9,1-12.9,3.3c-2.7,1.5-5.3,3.2-7.8,4.9C394.7,95.6,394.3,96.2,393.6,96.8
		z"/>
	<path d="M335.8,39.8c0,2.7,0,5.1,0,7.6c0,0.2-0.2,0.5-0.4,0.6c-3.2,1-5.7,3.1-8.2,5.2c-2,1.7-3.9,3.5-5.8,5.2
		c0.1,0.2,0.1,0.3,0.1,0.3c4.9,3.1,10,5.7,16,5.5c2.8-0.1,5.5-0.8,8-2c3.3-1.6,6.4-3.4,9.6-5.1c0.7-0.4,1.3-1.1,1.9-1.7
		c0.6-0.6,1.2-0.7,1.8-0.1c1.3,1.1,2.6,2.3,3.9,3.5c0.6,0.5,0.5,0.9,0.1,1.5c-1.9,2.5-4.4,4.3-7.1,5.8c-4.3,2.3-8.7,4.4-13.6,5.4
		c-5.9,1.2-11.5,0.4-16.9-2c-4.8-2.1-9-5.1-13-8.6c-1.7-1.5-1.7-1.7-0.3-3.4c6-7.7,13.5-13.6,22.7-17.1
		C334.8,40.2,335.2,40.1,335.8,39.8z"/>
	<path d="M392.6,21.4c-3.2,5.4-6.1,10.9-5.4,17.4c0.4,4.1,2.1,7.8,4.2,11.3c1.2,2.1,2.6,4,3.9,6c0.4,0.5,0.9,1,1.4,1.6
		c-0.2,0.4-0.5,0.9-0.8,1.3c-1.1,1.2-2.2,2.4-3.2,3.6c-0.6,0.7-1.2,0.7-1.9,0.1c-0.5-0.5-1-1-1.4-1.5c-4.5-6.3-8.2-13-9.6-20.7
		c-1-5.8,0.2-11.3,2.7-16.5c2.3-4.8,5.5-9,9.2-12.8c0.5-0.5,0.8-0.6,1.4-0.2c8.6,6.2,14.7,14.3,18.4,24.2c0.1,0.1,0,0.3,0.1,0.6
		c-0.9-0.1-1.7-0.2-2.5-0.2c-1.4,0-2.9,0.1-4.3,0.2c-0.7,0.1-1.1-0.2-1.4-0.8c-2.4-5.3-6.2-9.5-10.4-13.5
		C392.9,21.4,392.8,21.4,392.6,21.4z"/>
	<path d="M339.9,115.6c2.7,0,5.3,0,7.9,0c2.2,5.8,6.6,10,10.7,14.4c0.2,0,0.3,0,0.3-0.1c2.9-4.6,5.4-9.3,5.8-14.9
		c0.2-2.8-0.6-5.5-1.7-8.1c-1.7-4.3-4.2-8.2-6.7-12c0-0.1-0.1-0.1-0.1-0.2c-1.2-1.4-1.3-1.4,0-2.8c1.2-1.3,2.5-2.5,3.9-3.9
		c0.9,0.9,1.9,1.7,2.6,2.7c4.6,5.8,7.7,12.3,9.1,19.5c1.2,6.4-0.1,12.5-3.1,18.3c-2.2,4.4-5.3,8.1-8.7,11.6
		c-0.5,0.5-0.9,0.6-1.5,0.1c-8.3-6.2-14.5-14-18.2-23.7C340,116.3,340,116,339.9,115.6z"/>
	<path d="M396.4,73.3c-1.8-1.7-3.5-3.3-5.3-5c1.3-1.3,2.5-2.5,3.5-3.7c2.2-2.7,4.5-5.4,6.5-8.2c1.3-1.8,2.1-4,3.1-6
		c0.2-0.4,0.6-0.9,1-0.9c1.9,0,3.8,0,5.8,0.1c0.9,0,1.1,0.7,0.9,1.5c-0.8,3.1-2.1,5.9-3.7,8.5C405,64.7,401.3,69.5,396.4,73.3z"/>
	<path d="M354.7,77.9c2,1.9,3.7,3.6,5.5,5.3c-1.2,1.2-2.2,2.3-3.3,3.5c-3.3,3.7-6.5,7.4-8.7,11.9c-0.3,0.7-0.7,1.4-0.9,2.1
		c-0.3,1.1-0.9,1.5-2.1,1.5c-1.5-0.1-2.9,0-4.4-0.1c-1.5-0.1-1.6-0.4-1.3-1.8c1.3-4.7,3.6-8.9,6.6-12.6
		C348.9,84.3,351.8,81.1,354.7,77.9z"/>
	<path d="M383.1,91.2c1.5,1.4,2.8,2.7,4.2,3.9c4.2,3.8,8.5,7.5,14.1,9.3c0.3,0.1,0.6,0.7,0.6,1.1c0.1,2,0,4.1,0,6.3
		c-1-0.1-1.6-0.1-2.2-0.2c-2.9-0.6-5.5-1.8-7.9-3.4c-4.9-3.1-9.4-6.6-13.3-10.9c-0.6-0.7-0.6-1.2,0.1-1.8
		C380.2,94.1,381.6,92.7,383.1,91.2z"/>
	<path d="M373.4,54.9c-1.8,1.8-3.4,3.5-5,5.1c-2.4-2.1-4.7-4.2-7.1-6.2c-3-2.5-6.2-4.9-10-6.2c-2-0.7-2-0.5-2.1-2.9
		c-0.1-1.3,0.1-2.7,0.3-4c0.2-1.4,0.5-1.4,1.8-1.1c3.6,0.9,7,2.6,9.9,4.8c3.2,2.5,6.2,5.2,9.3,7.8C371.6,53,372.5,54,373.4,54.9z"/>
	<path d="M364.4,68.5c2.2-2.3,4.2-4.4,6.1-6.4c3-3,6-5.9,9-8.8c0.9-0.9,1-0.9,1.6,0.3c0.8,1.5,1.6,3.1,2.5,4.5
		c0.5,0.7,0.5,1.3-0.1,1.9c-4.4,4.3-8.7,8.6-13.1,12.9c-0.2,0.2-0.9,0.3-1,0.1C367.7,71.6,366,70,364.4,68.5z"/>
	<path d="M368.4,87c-5.6-5.5-10.9-10.7-15.9-16.1c2.2-1.2,4.1-2.2,6-3.3c0.7-0.4,1.1-0.1,1.5,0.4c3.6,3.6,7.2,7.2,10.8,10.8
		c0.7,0.7,1.3,1.4,2,2.1c0.6,0.6,0.6,1,0,1.6C371.3,83.9,369.9,85.4,368.4,87z"/>
	<path d="M367.2,91.9c1.1-1,2.4-2.1,3.6-3.3c3.3-3.2,6.6-6.4,9.8-9.7c0.8-0.9,1.4-0.8,2.2,0c1.3,1.4,2.8,2.6,4.3,4
		c-1,1-1.6,1.8-2.4,2.5c-4.3,4.3-8.7,8.5-13,12.8c-0.6,0.6-1,0.7-1.4-0.2C369.3,96.1,368.3,94.2,367.2,91.9z"/>
	<path d="M378.1,69.5c1.5-1.4,3.3-3.1,5.2-5c5.3,5.4,10.4,10.7,15.6,16c-2.3,1.3-4.4,2.4-6.6,3.6C387.7,79.4,383,74.5,378.1,69.5z"
		/>
</g>
<g>
	<path d="M223.8,168.5c-1.8,1.6-3.4,3.2-5,4.7c-0.5,0.4-0.9,0.3-1.2-0.1c-0.4-0.4-0.7-0.8-1-1.1c-5.5,0-11,0-16.4,0
		c-5.4,0-10.8,0-16.3,0c0,0.5-0.1,0.9-0.1,1.3c0,9.7,0,19.5,0,29.2c0,0.8,0.2,1.4,0.8,2c2.3,2.5,4.6,4.8,7.6,6.6
		c1.7,1,3.5,1.6,5.4,1.5c1.5-0.1,3,0,4.5-0.2c2.9-0.3,5.3-1.6,7.3-3.8c3.5-4,4.9-8.7,3.9-14c-0.5-2.7-2.1-4.9-4.1-6.8
		c-0.7-0.7-1.6-1.3-2.4-2c-1.6-1.6-3.5-1.8-5.7-1.6c-2.4,0.2-4.8,2.6-5,5.2c-0.1,1.5,0,3,0.9,4.4c0.2,0.2,0.1,0.8-0.1,1
		c-0.5,0.6-1.1,1.1-1.6,1.7c-1.1,1-2.2,2-3.6,3.1c-0.8-1.2-1.7-2.3-2.2-3.5c-2.7-6.2-2.2-14.5,7.7-18.6c4.6-1.9,9.2-1.5,13.2,1.3
		c5.5,3.8,9.5,8.7,10.6,15.5c1.5,9.1-1.7,17.3-10.2,22.6c-7.6,4.7-20.2,4.6-28.1-3c-2.2-2.1-4.2-4.3-6.2-6.6
		c-0.6-0.7-0.8-1.9-0.8-2.8c0-12.9,0-25.9,0-38.8c0-0.9,0.3-1.2,1.3-1.2c13.8,0,27.7,0,41.5,0c0.5,0,1,0.1,1.3,0.4
		C221.1,165.9,222.4,167.1,223.8,168.5z"/>
	<path d="M227.3,285.1c1.9-1.7,3.6-3.4,5.4-5c0.1,0.1,0.2,0.1,0.3,0.1c1.3,1.6,3,1.9,5,1.9c9.3-0.1,18.6,0,27.9,0c0.4,0,0.9,0,1.5,0
		c0-0.5,0.1-0.9,0.1-1.3c0-4.2,0-8.4,0-12.6c0-5.7,0-11.3,0-17c0-0.6-0.3-1.3-0.7-1.8c-1.9-1.9-3.8-3.8-5.9-5.5
		c-6.8-5.6-20.6-3-23,8.9c-1.2,6,1,11,5.9,14.7c1.3,1,2.6,2.1,4.4,2.4c3.3,0.5,6.9-2.5,7-5.8c0-1.3,0-2.6-0.8-3.8
		c-0.2-0.3,0-1.1,0.3-1.4c1.3-1.6,2.8-3.1,4.2-4.7c1.9,1.5,2.8,3.1,3.4,5c2.2,7-0.4,13.2-7,16.5c-5.7,2.8-11.2,2.3-16.1-1.7
		c-4.6-3.8-8.1-8.5-9.1-14.5c-1.6-9.2,1.7-16.4,9-21.8c4.1-3,8.7-4,13.7-3.9c8.7,0.1,15.1,4.6,20.4,11.1c1.5,1.8,2.1,3.7,2.1,6.1
		c-0.1,12.2-0.1,24.3-0.1,36.5c0,2,0,2-1.9,2c-13.2,0-26.4,0-39.6,0c-1.6,0-2.9-0.5-4-1.6C228.9,286.8,228.1,286,227.3,285.1z"/>
	<path d="M220.5,185.5c-1.6-1.9-3.1-3.7-4.8-5.6c1-1.1,2-2.2,3.1-3.2c3.8-3.7,7.6-7.3,11.4-11c1-1,2.3-1.4,3.7-1.3
		c13.2,0.1,26.4,0,39.6,0c1.5,0,1.5,0,1.5,1.6c0,12.7,0,25.4,0,38.2c0,2.9-1.6,4.7-3.8,6.2c-0.2,0.2-0.8,0.1-1,0
		c-1.6-1.5-3.2-3-4.8-4.5c0.1-0.2,0.1-0.3,0.2-0.4c1.6-1.3,1.5-3,1.5-4.9c-0.1-7.1,0-14.2,0-21.3c0-2.4,0-4.7,0-7.2
		c-0.5,0-0.8-0.1-1.2-0.1c-10.1,0-20.3,0-30.4,0c-0.5,0-1.2,0.2-1.6,0.6c-4.3,4.1-8.6,8.2-12.9,12.3
		C221,185,220.7,185.2,220.5,185.5z"/>
	<path d="M183.8,282c0.6,0,1,0,1.4,0c9.9,0,19.8,0,29.6,0c0.8,0,1.4-0.2,2-0.8c4.3-4.1,8.6-8.3,12.9-12.4c0.3-0.3,0.5-0.5,0.8-0.8
		c1.6,1.9,3.2,3.7,4.8,5.7c-0.3,0.4-0.6,0.9-1,1.3c-4.2,4.1-8.4,8.2-12.6,12.2c-1.5,1.5-3.2,2-5.3,2c-13-0.1-26,0-39,0
		c-0.5,0-1,0-1.5,0c0-0.5-0.1-0.8-0.1-1.2c0-12.8,0-25.7,0-38.5c0-3,1.9-4.7,4-6.3c0.2-0.1,0.8,0,1,0.3c1.6,1.4,3.1,2.9,4.5,4.3
		c-0.1,0.3-0.1,0.4-0.1,0.5c-1.3,1.2-1.5,2.7-1.4,4.3c0.1,9.3,0,18.6,0,27.9C183.8,280.9,183.8,281.4,183.8,282z"/>
	<path d="M208.6,248.1c-3,3.1-6,6.2-9,9.3c-0.6,0.6-1,1.3-1.7,1.8c-1.8,1.6-2.3,3.6-1.9,5.9c0.2,1,0.6,2.1,1.3,2.7
		c2.1,1.9,5,2.9,8,1.4c0.7-0.4,1.2-0.3,1.8,0.3c1.5,1.5,3,2.9,4.6,4.3c-2.1,2.2-4.7,3.4-7.6,3.5c-1.7,0.1-3.5,0-5.2-0.2
		c-4.4-0.7-7.2-3.4-9.2-7.2c-3-6-1.7-11.2,2.5-16.1c0.8-0.9,1.6-1.7,2.4-2.5c2.3-2.2,4.7-4.4,7-6.6c0.6-0.6,1.2-0.7,1.9-0.4
		C205.6,245,207.2,246.5,208.6,248.1z"/>
	<path d="M242.2,205.4c0.7-0.6,1.2-1.1,1.7-1.6c3.3-3.4,6.5-6.7,9.8-10.1c1.9-1.9,1.5-4.2,0.6-6.3c-0.9-2.2-2.6-3.3-5.1-3.4
		c-1.7,0-3.3,0-4.7,1.3c-1.9-1.8-3.7-3.5-5.5-5.3c2.1-2.1,4.5-3.2,7.3-3.5c2.1-0.2,4.3-0.1,6.3,0.3c4.2,0.8,6.9,3.6,8.7,7.3
		c2.4,4.9,1.9,9.6-1.2,14c-3.1,4.4-7.1,7.9-11.4,11.1c-0.4,0.3-1.1,0.2-1.6,0.1C245,208.6,243.7,207.1,242.2,205.4z"/>
	<path d="M259.1,202.8c2.4,2.2,4.6,4.4,6.8,6.5c2.8,2.8,5.6,5.5,8.5,8.3c4.2,4,4.9,11.2,1.4,16.5c-1.1,1.6-2.6,3-3.9,4.4
		c-0.2,0.2-0.9,0.4-1.1,0.2c-1.9-1.4-3.8-2.8-5.8-4.3c1-0.9,1.9-1.6,2.7-2.5c0.8-0.9,1.6-2,2.2-3.1c0.8-1.4,0.8-3-0.2-4.3
		c-2-2.5-4.1-4.9-6.4-7.2c-2.8-2.8-5.7-5.5-8.6-8.3c-0.8-0.7-0.8-1.3,0-2C256.1,205.7,257.5,204.3,259.1,202.8z"/>
	<path d="M260.7,218.4c-4.4,1.8-8.8,1.8-13.2,1.3c-4.8-0.6-8.7-3-11.9-6.7c-6.1-7-8.1-18-4.1-23.1c0.6,0.6,1.3,1.2,1.9,1.8
		c0.3,0.3,0.5,0.6,0.8,0.9c2.2,1.9,3.4,4,3.3,7.2c-0.1,4.5,2.5,7.8,6.2,10.2c2.8,1.8,5.8,2.7,9.1,2.4c1.3-0.1,2.3,0.3,3.2,1.3
		C257.6,215.2,259.1,216.7,260.7,218.4z"/>
	<path d="M219.3,263.8c-2-2-3.8-4-5.7-6c-0.2-0.2-0.2-0.7-0.2-1c-0.1-1.8,0-3.6-0.4-5.3c-0.8-4.1-3.6-6.8-7.3-8.5
		c-2.6-1.2-5.2-2-8.1-1.8c-0.9,0.1-1.6-0.2-2.3-0.9c-1.4-1.4-2.9-2.7-4.3-4.1c-0.3-0.2-0.5-0.6-0.7-0.8c6.7-4.1,19.4-1.3,25.1,5.3
		C222.4,248.7,222.6,259.4,219.3,263.8z"/>
	<path d="M185.6,219.1c-1,1.2-2,2.3-3,3.4c-1.9,2.2-2.8,5.6-0.1,8.4c2.1,2.2,4.3,4.4,6.5,6.6c2.5,2.4,5,4.8,7.6,7.3
		c-1.9,1.6-3.6,3.2-5.4,4.6c-0.2,0.2-0.9-0.1-1.2-0.3c-2-1.8-4.1-3.7-6-5.7c-2.8-2.8-5.5-5.6-8.1-8.5c-3.9-4.3-4.1-11.9,0.3-16.7
		c1-1,2-2,3-3c0.5-0.5,0.9-0.5,1.5,0C182.4,216.6,184.1,217.9,185.6,219.1z"/>
	<path d="M233,214.3c2,1.6,3.8,3.2,5.9,4.9c-0.7,0.6-1.4,1.1-2,1.7c-6.1,5.9-12.2,11.7-18.2,17.6c-0.8,0.7-1.3,0.9-2.1,0
		c-1.4-1.4-3-2.7-4.6-4.1C219.1,227.7,226,221.1,233,214.3z"/>
	<path d="M232.6,177.1c5.9,5.7,11.7,11.3,17.6,16.9c-1.8,1.9-3.6,3.7-5.4,5.6c-5.9-5.7-11.7-11.4-17.7-17.2
		C229,180.5,230.8,178.9,232.6,177.1z"/>
	<path d="M223.6,271.4c-1.6,1.5-3.1,3-4.6,4.5c-0.6,0.6-1.1,0.2-1.5-0.2c-3-2.9-6.1-5.7-9.1-8.6c-2.5-2.5-5-5-7.6-7.6
		c0.2-0.2,0.4-0.5,0.7-0.8c1.4-1.3,2.9-2.6,4.3-3.9c0.2-0.2,0.9-0.1,1.1,0.1c5.4,5.2,10.7,10.5,16.1,15.7
		C223.2,270.8,223.3,271,223.6,271.4z"/>
	<path d="M261.7,248c-3,3.1-6,6.1-8.9,9.1c-2.4,2.4-4.9,4.7-7.4,7c-1.1,1-1.3,1-2.1-0.1c-1-1.3-1.9-2.8-2.7-4.2
		c-0.5-0.9-0.2-1.6,0.5-2.4c4.5-4.3,9-8.6,13.5-12.9c0.3-0.3,0.9-0.4,1.3-0.3C258.4,244.8,260.1,246.4,261.7,248z"/>
	<path d="M188.8,205.7c4.6-4.4,8.9-8.6,13.2-12.7c1.3-1.3,2.7-2.5,4-3.8c0.5-0.5,0.9-0.5,1.4,0c1.4,1.5,2.7,3.1,3.1,5.2
		c0.1,0.4-0.1,1.1-0.4,1.4c-4.6,4.5-9.2,8.8-13.7,13.3c-0.8,0.7-1.6,0.6-2.2,0.2C192.3,208.2,190.7,207,188.8,205.7z"/>
	<path d="M233,228.5c1.8,2,3.7,4,5.6,6.1c0-0.1,0,0.1-0.2,0.3c-1.5,1.3-3,2.7-4.5,4c-0.4,0.4-0.8,0.5-1.2,0.1
		c-1.5-1.4-3.1-2.8-4.6-4.2c-0.6-0.6-0.7-1-0.1-1.6c1.5-1.6,2.9-3.2,4.3-4.8C232.5,228.3,232.7,228.4,233,228.5z"/>
	<path d="M223.7,220c-1.8,1.8-3.5,3.5-5.5,5.4c-2-2.3-3.9-4.3-5.9-6.5c1.7-1.4,3.6-3,5.6-4.7C219.9,216.1,221.7,217.9,223.7,220z"/>
	<path d="M244.7,250.7c-0.8-0.7-1.6-1.4-2.5-2.2c1.2-1.7,2.4-3.2,4.3-4c1.9-0.8,2.4-0.7,3.6,1.3C248.4,247.3,246.6,249,244.7,250.7z
		"/>
	<path d="M208.7,205.4c-1.5,1.8-3,3.4-5.2,4c-0.6,0.2-1.3,0.4-1.8-0.3c-0.6-0.7-0.7-1.3,0.1-2c1.4-1.2,2.7-2.5,4-3.8
		c0.4-0.4,0.7-0.4,1.1,0C207.4,204,208,204.7,208.7,205.4z"/>
</g>
<g>
	<path d="M114.3,129.2c4.8-4.9,9.5-9.6,14.4-14.5c-4.3-4.2-8.6-8.5-12.7-12.5c1.8-2,3.6-3.9,5.4-5.9c6.3,6.3,12.5,12.5,18.7,18.7
		c-8.6,8.6-17.1,17.1-25.6,25.6c-12.8-12.7-25.6-25.5-38.2-38c1.9-2.1,3.7-4,5.5-6C92.6,107.5,103.4,118.3,114.3,129.2z"/>
	<path d="M21.3,115c4.7,4.7,9.4,9.4,14.1,14.1c4.3-4.3,8.5-8.5,12.7-12.8c2,2,3.9,3.9,5.6,5.7c-6.1,6.2-12.2,12.4-18.3,18.6
		c-8.6-8.5-17.2-17-25.6-25.4c12.8-12.8,25.6-25.6,38.7-38.7c1.7,1.8,3.5,3.7,5.4,5.6C43,93.2,32.2,104.1,21.3,115z"/>
	<path d="M114.4,21.9c-4.3,4.3-8.6,8.5-12.9,12.8c-1.9-1.9-3.8-3.8-5.6-5.6c6.2-6.2,12.4-12.4,18.7-18.6c8.4,8.5,16.9,17,25.3,25.6
		c-12.6,12.7-25.4,25.5-38.1,38.2c-1.9-1.9-3.8-3.8-5.9-5.8c10.9-10.7,21.8-21.5,32.7-32.2C123.7,31.3,119,26.6,114.4,21.9z"/>
	<path d="M67.7,54.2C57.2,43.6,46.4,32.7,35.7,21.9C30.7,26.7,26,31.3,21.1,36c4.4,4.3,8.7,8.5,13.1,12.7c-2.1,2-3.9,3.9-5.9,5.8
		c-0.4-0.4-0.9-0.8-1.3-1.2c-5.6-5.6-11.1-11.2-16.7-16.7c-0.4-0.4-0.7-0.6-0.2-1.2c5.7-5.6,11.3-11.3,17-16.9
		c2.4-2.4,4.9-4.8,7.4-7.3c0.3-0.3,0.7-0.6,0.9-0.8c12.8,12.7,25.6,25.4,38.4,38.2C71.8,50.5,69.8,52.3,67.7,54.2z"/>
	<path d="M128.6,75.4c-4.3-4.3-8.6-8.5-12.9-12.7c2-2,3.9-3.9,5.7-5.6c6.2,6.2,12.3,12.3,18.3,18.3c-12.7,12.8-25.6,25.7-38.3,38.5
		c-1.8-1.7-3.7-3.5-5.7-5.3C106.6,97.5,117.5,86.5,128.6,75.4z"/>
	<path d="M74.8,21.9c-4.2,4.2-8.4,8.5-12.6,12.7c-1.9-1.9-3.8-3.8-5.7-5.7c6-6,12.2-12.2,18.4-18.4c12.8,12.8,25.6,25.7,38.3,38.5
		c-1.7,1.7-3.6,3.5-5.5,5.3C96.9,43.7,85.9,32.9,74.8,21.9z"/>
	<path d="M21,75.5C25.6,79.9,30,84,34.2,88c-2.1,2.2-3.9,4.1-5.7,6.1C22.2,87.9,16,81.7,9.9,75.6c12.8-12.9,25.5-25.7,38.4-38.7
		c1.9,2,3.7,4,5.4,5.9C43.1,53.5,32.2,64.3,21,75.5z"/>
	<path d="M42.1,96.3c11,10.9,22,21.9,33,32.8c4.3-4.3,8.5-8.5,12.6-12.6c2,1.9,3.9,3.7,5.8,5.5c-6.3,6.3-12.4,12.4-18.4,18.4
		c-12.8-12.7-25.8-25.5-38.6-38.3C38.4,100.2,40.2,98.3,42.1,96.3z"/>
	<path d="M88.1,76.7c1.8,1.9,3.6,3.8,5.6,5.7c-10.5,10.5-21.1,21-31.7,31.7c-1.8-1.9-3.6-3.9-5.5-5.8C66.9,97.9,77.5,87.3,88.1,76.7
		z"/>
	<path d="M73.7,88.9c-1.8,1.8-3.7,3.6-5.5,5.4C57.7,83.7,47.1,73.1,36.5,62.5c1.8-1.8,3.6-3.7,5.4-5.5C52.5,67.6,63,78.2,73.7,88.9z
		"/>
	<path d="M61.9,74.2c-2-1.9-3.9-3.7-5.8-5.5c10.6-10.7,21.1-21.2,31.6-31.8c2,2,3.9,3.9,5.8,5.7C82.8,53.2,72.3,63.8,61.9,74.2z"/>
	<path d="M76.4,62.3c1.7-1.7,3.5-3.5,5.4-5.4c10.5,10.5,21,21,31.5,31.5c-1.9,1.9-3.7,3.7-5.5,5.6C97.4,83.3,86.9,72.8,76.4,62.3z"
		/>
</g>
<g>
	<path d="M504.6,75.3c1.9,2,3.9,4.2,6,6.4c-1.3,1.4-2.4,2.7-3.6,3.8c-3,2.9-6.1,5.7-9.2,8.5c-1.8,1.6-4,2.4-6.3,3.2
		c-3.3,1.2-6.6,1.1-9.9,1c-5-0.1-9.1-2.2-12.8-5.3c-6.2-5.1-8.9-11.8-8.7-19.7c0.1-4.6,1.8-8.7,4.6-12.4c3.6-4.6,8-7.9,13.7-9.3
		c6.4-1.6,12.5-0.6,18.1,2.8c3.5,2.1,6.5,4.9,9.2,7.8c1.9,2,3.9,4,5.8,6c3.8,3.9,7.7,7.8,11.5,11.7c1.2,1.2,1.1,1.4,0,2.6
		c-1.7,1.7-3.4,3.3-5.1,4.9c-1.6-1.6-3.2-3.1-4.7-4.6c-6.7-6.6-13.3-13.1-20-19.8c-4-4.1-14.7-4.1-19,0.3c-2.5,2.6-3.8,5.6-4.7,9
		c-0.4,1.4-0.5,2.8,0,4.2c0.8,2.2,1.4,4.5,2.5,6.5c2.7,4.8,7.2,6.6,12.6,6.3c5.6-0.3,9.6-3.5,13.2-7.4
		C499.8,79.6,502.2,77.6,504.6,75.3z"/>
	<path d="M531.6,75.3c1.5,1.6,3.1,3.2,4.7,4.8c1.2,1.3,1.3,1.7,0,2.9c-3.2,3.3-6.5,6.6-9.7,9.9c-3.8,3.8-7.7,7.6-11.5,11.5
		c-1.9,2-3.7,4.3-4.5,7c-1.5,5.3-0.4,11.7,5.1,15.5c1.9,1.3,4.1,2.4,6.3,3.2c1.3,0.5,2.8,0.2,4.2,0.2c1.9,0.1,3.7-0.4,5.3-1.4
		c3.1-1.8,5.3-4.5,7.1-7.6c0.5-0.9,0.3-2.1,0.7-3.1c1.4-3.8,0-7.1-1.8-10.3c-1.8-3.1-4.2-5.6-6.8-8.1c-1.6-1.5-3.1-3.2-4.8-4.9
		c1.8-1.9,3.6-3.7,5.5-5.6c0.2-0.2,0.8-0.3,1-0.1c5,4.2,9.6,8.7,13.2,14.3c5,7.9,4.3,20.4-2.3,27.2c-3,3.1-6.4,5.6-10.3,7.4
		c-1,0.5-2.3,0.7-3.5,0.7c-3.5,0-7,0.2-10.4-0.2c-4.5-0.6-8.1-3.2-11.1-6.5c-2.6-2.9-4.6-6.3-6.1-9.9c-0.4-1.1-0.4-2.3-0.5-3.5
		c-0.5-5.8,0.3-11.2,3.6-16.2c1.8-2.7,3.8-5.1,6.3-7.1c2.5-2,4.5-4.4,6.7-6.6C522.4,84.4,526.9,79.9,531.6,75.3z"/>
	<path d="M512.2,67.6c1.7-1.8,3.2-3.4,4.9-5.1c6.3-6.3,12.6-12.6,18.8-18.9c0.6-0.6,1.2-1.4,1.6-2.3c0.9-2.2,1.6-4.4,2.3-6.6
		c0.2-0.6,0.1-1.4-0.1-2c-0.9-2.7-1.8-5.4-2.9-8.1c-0.5-1.2-1.4-2.4-2.9-2.7c-0.2,0-0.3-0.2-0.5-0.3c-4.5-4.3-14.3-4.6-19.4,2.1
		c-1.6,2.1-3.1,4.3-3.6,6.8c-0.8,3.7-0.3,7.2,1.9,10.4c2.9,4.3,6.4,7.9,10.1,11.4c2.1,2,1.6,1.6,0.1,3.3c-1.5,1.6-2.9,3.1-4.5,4.8
		c-1.1-1-2-1.8-2.8-2.6c-4-3.8-7.9-7.8-10.9-12.5c-2-3.1-3-6.4-3-10.1c0-2.9-0.1-5.9,0.7-8.8c1.4-5.1,4.7-8.8,8.8-11.8
		c0.2-0.2,0.5-0.3,0.7-0.5c10.2-7.3,24.7-5.2,32.3,4.9c3,4,4.7,8.5,5,13.7c0.4,7.6-2.9,13.6-7.9,18.9c-5.2,5.4-10.7,10.6-16,15.9
		c-2,1.9-3.9,3.9-5.8,5.9c-0.4,0.4-0.8,0.7-1.3,0.1C515.8,71.6,514,69.6,512.2,67.6z"/>
	<path d="M539.4,67.7c4-4.5,7.9-8.8,12.5-12.4c1.3-1,2.7-1.9,4.4-2.3c1.5-0.4,2.9-1.3,4.4-1.6c10-1.9,18.2,1.1,24.3,9.2
		c3.6,4.8,5,10.4,4.4,16.3c-0.8,9.3-6,15.6-14.1,19.5c-2.1,1-4.6,1.4-7,1.7c-7.9,0.9-14.6-1.8-20.2-7.3c-1.4-1.3-2.6-2.8-4-4.1
		c-1.8-1.8-3.7-3.6-5.5-5.4c-4.2-4.3-8.4-8.7-12.6-13.1c-0.1-0.1-0.1-0.2-0.2-0.3c2.1-2,4.1-3.9,6.4-6.1c0.1,0.1,0.2,0.5,0.5,0.8
		c6.9,7,13.9,14,20.9,21c3.4,3.4,7.3,5.6,12.2,5.7c8.8,0.2,13.7-6.8,14.4-12.7c0.9-7.1-1.9-12.4-8.2-15.6c-2.2-1.1-4.7-1.1-7.1-1.1
		c-4.3,0.1-7.7,2-10.6,5.1c-2.3,2.5-4.8,4.8-7.2,7.3c-0.1,0.1-0.1,0.1-0.2,0.2c-1.5,1.4-1.5,1.4-3,0
		C542.4,70.9,540.9,69.3,539.4,67.7z"/>
</g>
<g>
	<path d="M532.9,316.6c0.7,4.2,2.7,7.7,4.5,11.5c-1.6,0.7-3.1,1.4-4.7,2.1c-0.6,0.3-0.9,0-1.2-0.5c-2.3-3.3-3.6-7-4.1-10.9
		c-0.3-2.3-0.3-4.7-0.5-7c-0.1-0.8,0.2-1,1-1.1c7.6-0.4,14.8,1.1,21.6,4.4c3.9,1.9,7.1,4.6,10.2,7.5c7,6.6,11.2,14.8,12.8,24.3
		c0.8,4.5,0.7,9.1-0.2,13.7c-0.2,0.9-0.5,1-1.2,0.4c-1.4-1.2-2.8-2.5-4.2-3.8c-0.2-0.2-0.3-0.5-0.3-0.8c0.5-4.9,0-9.7-1.6-14.2
		c-4.9-13.7-14.4-22.2-28.8-24.9c-0.5-0.1-1-0.3-1.5-0.4C534.2,316.7,533.7,316.7,532.9,316.6z"/>
	<path d="M539,421.8c1.4-1.7,2.7-3.2,4.1-4.8c0.2-0.3,0.8-0.4,1.2-0.4c3.8,0,7.7,0.1,11.4-1c14.5-4.1,23.7-13.5,27.3-28.2
		c0.3-1.2,0.4-2.4,0.6-3.7c0-0.3,0-0.6,0-1c-2.1,0.1-3.9,0.9-5.7,1.8c-1.8,0.9-3.5,1.8-5.4,2.9c-0.7-1.7-1.5-3.4-2.1-5.1
		c-0.1-0.3,0.3-0.9,0.6-1.1c3.2-2.2,6.8-3.5,10.6-4.1c2.5-0.3,5-0.4,7.5-0.6c0.6,0,0.8,0.2,0.8,0.7c0.5,8.8-1.4,17-6,24.5
		c-3.2,5.2-7.2,9.7-12.2,13.2c-5.6,4-11.9,6.4-18.7,7.4c-4.1,0.6-8.2,0.6-12.3-0.2c-0.4-0.1-0.8-0.2-1.2-0.3
		C539.3,422,539.2,421.9,539,421.8z"/>
	<path d="M478.6,388.8c1.7,1.5,3.2,2.8,4.7,4.3c0.3,0.3,0.5,0.8,0.5,1.2c0.1,2.7,0,5.3,0.2,8c0.6,6.4,3.3,11.9,7.2,17
		c5.3,7,12.2,11.4,20.7,13.5c1.6,0.4,3.3,0.6,5,0.9c0.1,0,0.2,0,0.5,0c-0.2-0.9-0.2-1.9-0.5-2.7c-1.2-2.9-2.4-5.7-3.7-8.7
		c1.6-0.6,3.3-1.4,5.1-2c0.2-0.1,0.6,0.3,0.8,0.5c2.2,3.3,3.5,6.9,4,10.8c0.3,2.4,0.3,4.9,0.4,7.3c0.1,0.8-0.3,1.1-1.1,1.1
		c-9.6,0.5-18.4-2.3-26.1-7.7c-6-4.1-10.8-9.5-14.2-16.2c-2.8-5.5-3.5-11.2-4.4-17c-0.5-3,0-5.9,0.5-8.8
		C478.2,389.8,478.4,389.3,478.6,388.8z"/>
	<path d="M511.6,328.6c-1.4,1.5-2.7,3-4,4.4c-0.3,0.3-0.9,0.6-1.3,0.6c-2.7,0.1-5.5,0-8.2,0.4c-5.9,0.7-11.2,3-15.9,6.5
		c-8.4,6.1-13.4,14.5-15,24.7c-0.1,0.7-0.2,1.4-0.3,2.3c1.2-0.3,2.2-0.5,3.2-0.9c2.4-1,4.9-2.1,7.2-3.3c0.7-0.3,1-0.3,1.3,0.5
		c0.5,1.4,1.1,2.7,1.7,4.1c-2.9,3.8-12.8,6.5-19.5,5.3c-1.7-13.8,5.4-29.2,19.4-38.9C490.7,327.1,506.3,326.2,511.6,328.6z"/>
	<path d="M583.5,367.4c0.2-2.9-0.4-5.5-1.3-8c-1.8-5.1-4.4-9.7-7.9-13.6c-1.8-2-2.4-4.3-3.2-6.6c-0.5-1.5-1.1-2.9-1.6-4.4
		c-0.1-0.2-0.1-0.5,0-0.9c0.6,0.4,1.3,0.7,1.8,1.1c10.3,7.2,16.5,17.1,18.3,29.5c0.4,2.6,0.2,5.2,0.3,7.9c0,1.1-0.9,1.1-1.6,1.1
		c-1,0.1-2,0-3-0.1c-6.9-0.5-13.2-2.8-18.5-7.4c-2.4-2.1-4.7-4.4-7.1-6.5c-1.8-1.6-3.9-2.9-5.8-4.4c-0.3-0.2-0.6-0.7-0.6-1
		c-0.1-1.6-0.1-3.2-0.2-4.7c0-0.7,0.2-1,0.9-0.7c1.2,0.5,2.5,0.9,3.6,1.6c4.1,2.5,7.5,5.8,11,9c3.2,2.9,6.5,5.6,10.6,7
		C580.5,366.7,582,367,583.5,367.4z"/>
	<path d="M466.7,382.8c0.3,1.7,0.5,3.3,0.8,4.8c1.6,6.6,4.6,12.5,9.1,17.5c1.2,1.4,2,2.9,2.5,4.6c0.6,2.2,1.5,4.4,2.3,6.7
		c-0.8-0.4-1.7-0.8-2.5-1.4c-3.7-2.4-6.6-5.7-9.3-9c-4.6-5.6-6.9-12.2-8.4-19.2c-0.7-3.1-0.4-6.3-0.4-9.5c0-0.2,0.4-0.7,0.7-0.7
		c6,0.1,12,0.6,17.2,4c3,2,5.8,4.3,8.6,6.7c3,2.5,5.7,5.4,9.1,7.5c0.8,0.5,1,1.1,1,2c0,1.4,0.2,2.8,0.4,4.2c0,0.2,0,0.5,0,1.1
		c-1.6-0.7-3.2-1.2-4.5-2.1c-2.3-1.5-4.6-3-6.5-4.9c-2.8-2.8-5.9-5.3-8.9-7.7c-2.7-2.1-6-3.6-9.4-4.4
		C467.8,382.9,467.4,382.9,466.7,382.8z"/>
	<path d="M551.6,403c0.2,1.2-0.4,2.4-1,3.6c-2,3.6-4.7,6.6-7.5,9.6c-2.6,2.8-5.4,5.6-7.2,9.1c-1.4,2.6-2.3,5.3-2.9,8.5
		c1-0.2,1.8-0.3,2.6-0.4c4.4-0.8,8.7-2,12.5-4.3c2.7-1.7,5.2-3.8,7.8-5.8c0.9-0.7,1.9-1.1,3-1.5c2.4-0.8,4.7-1.7,7-2.6
		c0.2-0.1,0.4-0.1,0.8-0.2c-0.3,0.6-0.5,0.9-0.7,1.3c-5.4,8.4-12.9,14-22.3,17.3c-5.1,1.8-10.4,2.6-15.9,2.4c-0.6,0-1-0.1-1-0.8
		c0.1-5.2,0.5-10.3,2.7-15.1c1.4-3.1,3.5-5.8,5.7-8.3c1.8-2,3.8-4,5.5-6c1.6-1.9,3.1-4,4.6-6c0.4-0.5,0.8-0.7,1.4-0.7
		C548.3,403,549.9,403,551.6,403z"/>
	<path d="M517.6,316.6c-2.9,0.1-5.3,0.6-7.6,1.6c-3.3,1.3-6.6,2.8-9.7,4.4c-1.5,0.8-2.6,2.1-3.9,3.1c-1.7,1.4-3.5,2.6-5.8,3.2
		c-1.9,0.5-3.7,1.4-5.6,2.1c-0.3,0.1-0.5,0.2-0.8,0.3c-0.1-0.1-0.2-0.1-0.3-0.2c0.4-0.8,0.7-1.6,1.2-2.3c1.4-1.7,2.9-3.4,4.4-5
		c5.5-5.6,12.1-9.6,19.6-11.9c4.4-1.3,9-1.3,13.5-1.2c0.3,0,0.7,0.5,0.7,0.8c0.1,6.8-0.8,13.4-5.2,19c-2.8,3.5-5.9,6.9-8.8,10.4
		c-1.5,1.8-2.9,3.8-4.3,5.7c-0.4,0.5-0.7,0.7-1.3,0.7c-1.4,0-2.9,0.1-4.3,0.2c-1,0.1-1.2,0-0.9-1c0.6-1.4,1.1-2.9,2-4
		c2.7-3.4,5.5-6.8,8.3-10.1c2.9-3.3,5.7-6.7,7.3-10.9C516.9,319.9,517.1,318.3,517.6,316.6z"/>
	<path d="M499.7,364.5c1.2,1.5,2.5,3,3.8,4.6c-1.3,0.8-2.5,1.7-3.9,2.4c-3.9,2-8.1,2.1-12.3,1c-3.6-0.9-5.7-3.7-7.5-6.8
		c-1.5-2.7-2.1-5.6-2.1-8.5c-0.1-3.5,0.1-6.9,0.3-10.4c0.1-1.8,0.8-3.3,2.5-4.4c1.6-1,3-2.2,4.6-3.3c0.3-0.2,0.8-0.4,1.4-0.7
		c-0.1,0.6-0.1,1-0.2,1.3c-2.8,6.3-2.9,12.9-2.2,19.6c0.3,2.6,1.5,4.8,3.6,6.4c2.4,1.8,5,1.7,7.6,0.9
		C496.9,366.1,498.3,365.2,499.7,364.5z"/>
	<path d="M546.8,381.2c2.7-2.1,5.6-3.5,9.1-3.9c2.8-0.3,5.7-0.3,8.3,0.9c3.6,1.7,5.9,4.6,7.2,8.2c2,5.7,2.1,11.5,1.1,17.4
		c-0.3,1.4-0.9,2.7-2.1,3.6c-1.5,1.1-3,2.3-4.5,3.4c-0.5,0.3-1.1,0.4-1.7,0.7c0.6-2.3,1.3-4.3,1.7-6.4c1.1-4.9,1.4-9.9,0.3-14.9
		c-0.2-0.9-0.5-1.8-0.8-2.6c-1.8-4-5.8-5.6-10.3-4c-1.2,0.4-2.3,1.1-3.4,1.7c-0.7,0.4-1.1,0.5-1.6-0.4
		C549.2,383.7,548,382.6,546.8,381.2z"/>
	<path d="M561.6,336.4c-1.6-0.5-3.1-1.1-4.7-1.5c-5.7-1.6-11.5-1.9-17.3-0.5c-3.6,0.9-6,3.6-6.3,6.8c-0.3,2.7,0.6,5.1,2.1,7.3
		c0.5,0.7,0.5,1.1-0.2,1.6c-1.2,0.9-2.3,1.9-3.3,2.9c-0.5,0.4-0.8,0.5-1.2-0.1c-2.7-4.3-4-9-3.1-14.1c0.5-3.4,2.5-5.8,5.2-7.8
		c2.8-2.1,6.1-3,9.5-3.4c4.1-0.5,8.3-0.5,12.3,0.4c1.3,0.3,2.4,0.9,3.2,2.1c0.8,1.3,1.9,2.3,2.8,3.6c0.5,0.8,0.9,1.6,1.3,2.5
		C561.7,336.3,561.7,336.4,561.6,336.4z"/>
	<path d="M489.1,413.9c6.2,2.6,12.6,3.2,19.2,2.6c1.4-0.1,2.7-0.5,4-1c4.1-1.6,6.1-5.9,4.6-10.1c-0.6-1.6-1.5-3.1-2.3-4.8
		c1.5-1.2,3-2.5,4.6-3.8c1.7,2.1,3,4.4,3.6,7.1c0.8,3.5,0.8,7-0.8,10.4c-1.8,3.9-5.1,6-9.1,7.2c-5.6,1.7-11.3,1.6-17,0.6
		c-1.3-0.2-2.3-0.7-3-2c-0.6-1.1-1.7-2-2.5-3c-0.7-0.9-1.1-2-1.6-3C488.9,414.1,489,414,489.1,413.9z"/>
	<path d="M486.3,385.7c-1.5-1.3-3-2.5-4.6-3.9c1.9-2.2,4.1-3.8,6.9-4.4c5.2-1.1,10,0,14.5,2.8c4.2,2.6,7.7,5.9,11,9.6
		c0.2,0.2,0.3,0.8,0.2,0.9c-1,1.1-2.1,2.2-3.2,3.3c-0.6,0.6-1.2,0.4-1.7-0.3c-3.2-4-7.1-7.2-11.8-9.3
		C493.6,382.7,489.7,382.1,486.3,385.7z"/>
	<path d="M518.6,331.6c2.5,2.3,4,5,4.5,8.2c0.8,5.6-1.1,10.4-4.1,14.9c-2.3,3.4-5.1,6.3-8.2,9c-0.6,0.5-1.2,0.7-1.8,0.1
		c-0.9-0.9-1.8-1.9-2.6-2.9c-0.5-0.7-0.4-1.2,0.4-1.8c3.1-2.5,5.8-5.4,7.7-8.8c1-1.7,1.7-3.6,2.4-5.5c1-2.9,0.4-5.5-1.6-7.8
		c-0.5-0.6-0.5-1,0-1.6C516.4,334.1,517.5,332.9,518.6,331.6z"/>
	<path d="M564.3,364.6c1.4,1.3,2.8,2.5,4.3,3.9c-2.1,2.6-4.6,4.2-8,4.6c-6.4,0.8-11.8-1.5-16.6-5.4c-2.2-1.8-4.4-3.6-6.4-5.6
		c-2.1-2.1-2-2.6,0.1-4.6c2-1.9,2.1-1.8,4.1,0.1c3.1,3.1,6.4,6.2,10.4,8c1.6,0.7,3.4,1.3,5.2,1.5
		C560.4,367.4,561.3,366.9,564.3,364.6z"/>
	<path d="M535.9,414.1c-1.3,1.4-2.5,2.8-3.9,4.3c-2.6-2-4.4-4.5-4.7-7.8c-0.5-5.2,0.9-9.9,3.7-14.2c2.5-3.8,5.3-7.1,8.8-9.9
		c0.6-0.5,1-0.6,1.5,0c0.9,0.9,1.8,1.8,2.6,2.8c0.5,0.6,0.4,1.1-0.2,1.7c-3,2.9-5.8,5.9-8,9.4c-1.5,2.4-2.5,4.9-2.6,7.8
		C533.2,410.5,534.2,412.5,535.9,414.1z"/>
	<path d="M564.2,386.9c1.2,1.9,1.8,3.8,1.9,5.9c0,0.3-0.1,0.6-0.3,0.8c-3.8,3.8-7.9,7.2-13.3,8.4c-4.7,1.1-9.4,0.9-13.9-0.8
		c-2.1-0.8-2.1-1.2-0.8-3c0.2-0.2,0.3-0.4,0.5-0.6c1.1-1.5,2.2-2.2,4.4-1.5c5.9,1.8,11.2-0.1,15.8-4.1c1.6-1.4,3.1-2.8,4.6-4.2
		C563.4,387.4,563.8,387.2,564.2,386.9z"/>
	<path d="M552.9,352.5c-0.5,3-1,5.9-1.5,8.9c-0.1,0.3-0.2,0.6-0.3,0.8c-0.6,1.4-1,1.6-2.2,0.6c-1-0.8-2-1.6-2.9-2.5
		c-0.2-0.2-0.4-0.8-0.3-1c1.1-3.1,0.9-6.3,0.6-9.4c-0.1-1.6-0.9-3.3-1.9-4.6c-2.1-2.8-4.4-5.4-6.6-8.1c-0.8-0.9-0.8-1.5,0.3-1.8
		c1.5-0.5,3.1-0.7,4.6-1c0.2,0,0.6,0.1,0.8,0.3c4.3,3.9,7.7,8.5,8.8,14.3c0.1,0.6,0.2,1.1,0.3,1.7c0.1,0.6,0.1,1.1,0.1,1.7
		C552.7,352.5,552.8,352.5,552.9,352.5z"/>
	<path d="M507.6,416.2c-0.3-0.1-0.5-0.2-0.7-0.4c-3.4-3.6-6.6-7.5-8.2-12.3c-1-3-0.8-6.1-0.5-9.1c0.2-1.9,0.6-3.8,1-5.8
		c0.1-0.4,0.3-0.8,0.4-1.1c0.5-1,0.9-1.1,1.7-0.5c1.1,0.8,2.2,1.7,3.3,2.6c0.4,0.3,0.5,0.6,0.3,1.2c-1.8,5.2-1.6,10.3,1.8,14.9
		c1.8,2.5,3.9,4.7,6,6.9c0.8,0.9,0.8,1.7-0.4,2.1C510.8,415.4,509.2,415.8,507.6,416.2z"/>
	<path d="M510.2,354.7c-2-0.3-3.7-0.5-5.4-0.7c-0.7-0.1-1.5,0.1-2.2,0c-3.2-0.3-5.9,0.8-8.3,2.7c-2.3,1.9-4.5,3.9-6.7,5.8
		c-1.2,1.1-1.7,1-2.2-0.5c-0.5-1.5-0.8-3-1.1-4.5c-0.1-0.2,0.1-0.6,0.2-0.8c2.9-2.6,5.8-5.2,9.3-6.9c3.8-1.9,7.8-2.5,11.9-1.8
		c1.9,0.3,3.8,0.6,5.7,0.9c0.4,0.1,0.7,0.2,1.1,0.3c0.9,0.3,1.1,0.9,0.7,1.7C512.6,352.7,511.2,353.8,510.2,354.7z"/>
	<path d="M516.8,370.2c0,0.6,0,1.3,0,1.9c0,0.7-0.2,0.9-0.9,1c-2.5,0-4.9-0.6-7.2-1.7c-5.2-2.5-8.8-6.2-10.1-11.9
		c-0.3-1.2-0.4-2.4-0.5-3.6c0-0.2,0.3-0.7,0.6-0.8c1.5-0.4,2.9-0.6,4.4-0.9c0.2,0,0.6,0.3,0.7,0.6c0.3,0.8,0.6,1.5,0.6,2.3
		c0.3,2.9,2.1,5,4,6.9c1.3,1.3,2.9,2.2,4.9,2.4c0.9,0.1,1.7,0.5,2.6,0.7c0.7,0.2,1.1,0.6,1,1.4C516.8,369.1,516.8,369.7,516.8,370.2
		z"/>
	<path d="M552.4,395c-1.7,0.8-3.8,1.1-5.9,0.8c-0.1-0.9-0.1-1.9-0.3-2.8c-0.9-4-3.3-6.8-7-8.5c-1.5-0.7-3.2-1-4.8-1.6
		c-0.3-0.1-0.6-0.4-0.6-0.7c-0.1-1.4-0.2-2.8-0.3-4.2c0-0.7,0.3-1,1-0.9c4.6,0.2,8.6,1.6,12,4.8c3.6,3.4,5.6,7.5,5.9,12.5
		C552.4,394.6,552.4,394.8,552.4,395z"/>
	<path d="M530.3,366.6c-0.6,0-1.1,0-1.7,0c-0.9,0.1-1.3-0.2-1.3-1.2c0-4.1,1.5-7.6,4.1-10.8c3.4-4.1,7.7-6.3,13-6.6
		c0.6,0,0.9,0.1,1,0.7c0.2,1.4,0.4,2.9,0.5,4.3c0,0.2-0.3,0.7-0.6,0.8c-0.6,0.2-1.2,0.3-1.9,0.4c-4.7,0.8-7.7,3.5-9.2,7.9
		c-0.4,1.2-0.7,2.4-1,3.6c-0.2,0.8-0.5,1-1.2,0.9C531.5,366.6,530.9,366.6,530.3,366.6z"/>
	<path d="M505,402.1c-0.2-1.6-0.4-3.2-0.5-4.7c0-0.2,0.3-0.6,0.6-0.7c1.3-0.4,2.7-0.8,4.1-1.2c1.9-0.6,3.6-1.3,4.8-3.2
		c1.3-2,2.7-3.9,3.2-6.3c0.1-0.3,0.1-0.5,0.1-0.8c0.1-1.5,0.1-1.5,1.6-1.5c1.2,0,2.4,0,3.6,0c0.6,0,0.9,0.2,0.8,0.8
		c-0.6,8.8-6.6,17.5-17.5,17.7C505.6,402.2,505.4,402.2,505,402.1z"/>
	<path d="M545.1,369.4c-1.6,1.8-3.8,2.5-6.1,3c-3.8,0.8-7.6,1.1-11.4,0.9c-0.9,0-1.7,0-2.6,0.1c-0.8,0.1-1-0.3-1-1
		c0-1.3,0-2.6,0-3.9c0-0.7,0.3-1,1-1c2.8,0,5.6,0,8.4-0.3c2.2-0.2,4.3-0.9,6.5-1.5c0.5-0.1,0.8-0.2,1.2,0.2
		C542.3,367.1,543.7,368.2,545.1,369.4z"/>
	<path d="M527.1,378.6c0-1.2,0-2.4,0-3.6c0-0.8,0.2-1.2,1.1-1.1c1.3,0.1,2.6,0.1,3.8,0c0.8,0,1,0.3,1,1.1c0,2.9-0.1,5.8,0.2,8.7
		c0.2,2,1,4,1.5,6c0.2,0.5,0.2,0.8-0.2,1.3c-1,1.1-2,2.3-2.9,3.5c-0.7,0.9-0.8,0.9-1.5-0.1c-1.4-2.1-2.1-4.5-2.4-7
		c-0.4-2.9-0.6-5.8-0.9-8.7C527,378.6,527,378.6,527.1,378.6z"/>
	<path d="M523.2,376.5c-1.7,0-3.2,0-4.8,0c-0.7,0-0.8-0.3-0.8-0.9c0-2.4,0.1-4.9-0.2-7.3c-0.3-2.5-1-5.1-1.6-7.6
		c-0.2-0.6-0.1-1,0.3-1.5c1.1-1.3,2.1-2.6,3.2-4.1c0.2,0.3,0.5,0.6,0.8,0.9c1.7,2.3,2.4,5,2.7,7.7c0.3,2.5,0.5,5.1,0.6,7.6
		C523.5,373.1,523.3,374.7,523.2,376.5z"/>
	<path d="M505.2,380.9c1.5-1.2,3.1-1.9,4.8-2.4c3.7-1.1,7.5-1.4,11.4-1.5c1.4,0,2.8,0,4.1,0c0.7,0,0.9,0.2,0.9,0.9
		c0,1.3,0,2.6,0.2,3.9c0.1,0.9-0.3,1.1-1,1.1c-2.4,0-4.7,0-7.1,0.1c-2.6,0.1-5.2,0.6-7.6,1.7c-0.5,0.2-0.9,0.2-1.3-0.2
		C508.1,383.3,506.7,382.1,505.2,380.9z"/>
</g>
<g>
	<path d="M576.5,220.6c0.1,2,0.3,4,0.4,6c0.2,5.2-1.9,9.6-5.3,13.3c-1.1,1.3-1.6,2.4-1.6,4.2c-0.1,4.9-1.2,9.6-4.8,13.3
		c-1.6,1.7-3.2,3.4-4.8,5.1c-2.9,3-6.6,4.6-10.8,5.2c-0.4,0.1-0.8,0.2-1.2,0.2c-2.6-0.3-4.3,1.1-6.1,2.8c-3.4,3.1-7.4,5.1-12.2,5.2
		c-2.1,0-4.1,0-6.2,0.1c-3,0.2-5.7-0.5-8.2-2c-2.2-1.3-4.2-2.8-6.2-4.3c-0.6-0.4-1-0.6-1.7-0.6c-3.3,0.1-6.6-0.3-9.7-1.7
		c-2.7-1.1-4.9-2.9-6.7-5.1c-0.3-0.3-0.6-0.7-0.9-0.9c-4.2-2.9-6.5-6.9-7.3-11.8c-0.3-1.5-0.3-3.1-0.5-4.6c-0.1-0.5-0.3-1.1-0.7-1.5
		c-2.2-2.3-4.2-4.6-5.5-7.5c-1.1-2.7-1.8-5.5-1.4-8.5c0.1-1,0-2-0.1-3c-0.7-5.3,1.3-9.7,4.4-13.8c0.3-0.3,0.5-0.7,0.8-1
		c1.4-1.1,1.6-2.6,1.6-4.3c0-6.1,2.1-11.4,7.1-15.2c0.2-0.2,0.4-0.4,0.5-0.6c3-4.5,7.3-6.7,12.4-7.5c1.4-0.2,2.9-0.2,4.3-0.4
		c0.3,0,0.7-0.3,1-0.6c2.4-2.4,5-4.4,8.1-5.8c2.7-1.2,5.5-1.5,8.4-1.2c0.9,0.1,1.8,0,2.7-0.2c4.1-0.5,7.8,0.4,11.2,2.6
		c1.7,1.1,3.3,2.5,4.9,3.7c0.3,0.2,0.8,0.4,1.2,0.4c5.8-0.1,11.1,1.2,15.4,5.4c1.5,1.5,3.1,2.9,4.6,4.4c3.2,3.2,4.5,7.2,5.2,11.4
		c0.1,0.5,0.2,1.1,0.2,1.6c-0.3,1.7,0.7,2.8,1.8,3.9c3,3.2,5.3,6.8,5.9,11.3c0,0.2,0.1,0.4,0.1,0.6c0,0.4,0,0.9,0,1.3
		C576.6,220.6,576.5,220.6,576.5,220.6z M510.8,192.7c0.4-0.2,0.9-0.4,1.3-0.4c4.4-0.1,8.5,0.7,12.2,3c0.5,0.3,0.8,0.3,1.3,0
		c2.7-1.7,5.6-2.9,8.8-3.3c1.5-0.2,3-0.1,4.6-0.1c0.1,0.2,0.2,0.4,0.3,0.5c3.2,2.7,5.2,6.1,6.2,10.1c0.2,0.9,0.7,1.3,1.6,1.5
		c4.1,1,7.8,2.7,10.7,5.9c0.3,0.4,0.6,1,0.7,1.5c0.1,4.3-0.8,8.3-3,12c-0.3,0.5-0.3,0.9,0,1.4c2,3,3.2,6.3,3.5,10
		c0.1,1.1-0.1,2.2-0.2,3.3c-0.2,0.2-0.5,0.4-0.7,0.6c-2.7,3.1-6.1,5-10,6c-0.8,0.2-1.2,0.6-1.3,1.3c-0.7,4.2-2.9,7.6-5.7,10.7
		c-0.4,0.4-1.1,0.7-1.6,0.8c-4.3,0.2-8.3-0.8-12-3c-0.6-0.3-1-0.3-1.5,0c-3.6,2.2-7.4,3.6-11.7,3.6c-0.9,0-1.5-0.4-2.1-0.9
		c-3-2.8-4.9-6.2-6-10.1c-0.2-0.8-0.7-1.1-1.5-1.3c-3.9-0.9-7.4-2.6-10.3-5.4c-0.2-0.2-0.4-0.3-0.6-0.5c1.8,2.6,3.5,5.3,4.3,8.5
		c-0.7-0.1-1.3-0.1-1.9-0.1c-0.6,0-1.2-0.1-1.8-0.1c0.1-0.1,0.2-0.1,0.2-0.2c-1-1.4-1.9-2.9-3.1-4.1c-1.4-1.4-3.5-1.1-4.3,1
		c-0.2,0.4-0.3,0.8-0.4,1.2c-0.4,5.3,1.5,9.6,6.1,12.5c0.4,0.3,0.8,0.6,1.1,1c3.1,4.5,7.4,6,12.7,5.5c1.4-0.1,2.5-0.9,2.9-2.3
		c0.4-1.4-0.3-2.5-1.4-3.2c-1-0.7-2.2-1.2-3.3-1.8c-0.2-0.1-0.6-0.3-0.6-0.5c-0.1-1.1-0.2-2.2-0.3-3.5c0.7,0.2,1.2,0.2,1.6,0.4
		c2.3,1.1,4.5,2.3,6.8,3.5c0.4,0.2,0.9,0.4,1.4,0.5c2.6,0.7,5.3,1.5,7.9,2.2c0.4,0.1,0.7,0.4,1.2,0.6c-0.9,0.8-1.6,1.4-2.3,2.1
		c-0.4,0.4-0.7,0.4-1.2,0.2c-1.2-0.4-2.4-0.7-3.6-0.9c-1.4-0.2-2.6,0.3-3.2,1.6c-0.6,1.3-0.3,2.5,0.6,3.4c1.4,1.2,2.8,2.5,4.5,3.4
		c2.8,1.5,5.8,2,8.9,1c0.3-0.1,0.8-0.1,1.1,0c4.7,1.2,11.1-1.5,13.4-5.8c0.9-1.7,0.3-3.5-1.6-4c-0.7-0.2-1.5-0.3-2.3-0.1
		c-1,0.2-1.9,0.7-2.9,1c-0.3,0.1-0.7,0.2-0.9,0.1c-0.9-0.7-1.7-1.4-2.6-2.2c0.4-0.3,0.7-0.5,1.1-0.7c2.3-0.8,4.7-1.7,7-2.4
		c1-0.3,2-0.6,2.9-1.3c1.9-1.6,4-2.7,6.4-3.6c0.3-0.1,0.7-0.2,1.1-0.3c0,0.9,0,1.7,0,2.5c0,0.9-0.4,1.4-1.2,1.8
		c-1,0.5-2,1.1-2.8,1.8c-0.9,0.8-1.4,1.9-1,3.1c0.4,1.2,1.4,1.8,2.7,2c4.7,0.8,10.3-1.9,12.6-6c0.2-0.4,0.5-0.8,0.9-1.1
		c1.8-1,3-2.4,4-4.1c1.7-2.8,2.2-5.8,1.6-9c-0.3-1.4-1.2-2.3-2.6-2.6c-1.3-0.2-2.2,0.5-2.8,1.4c-0.7,1-1.2,2.2-1.8,3.3
		c-0.1,0.3-0.4,0.6-0.6,0.7c-1.1,0.2-2.1,0.2-3.5,0.3c0.6-1.5,1-2.9,1.6-4.2c0.8-1.6,1.7-3,2.5-4.6c0.1-0.3,0.4-0.6,0.4-1
		c0.2-0.8,0.2-1.5,0.4-2.3c0.5-2.4,1.3-4.6,2.5-6.9c0.8,0.8,1.5,1.5,2,2.2c0.2,0.3,0.3,0.8,0.2,1.1c-0.2,1.2-0.7,2.3-0.8,3.5
		c-0.2,1.3,0.2,2.6,1.5,3.3c1.3,0.7,2.4,0.4,3.5-0.5c3.4-2.7,6.2-8.5,4.6-13.2c-0.2-0.5-0.1-1.1,0-1.6c1.1-4.7-1.5-10.8-5.7-13.1
		c-1.9-1.1-3.8-0.3-4.3,1.9c-0.4,1.7,0.3,3.2,0.9,4.6c0.1,0.3,0.3,0.8,0.1,1.1c-0.6,0.9-1.4,1.7-2.2,2.6c-1.4-2.1-2.3-4.4-2.8-6.7
		c-0.4-2-1.1-3.7-2.4-5.3c-1.4-1.9-2.4-4-3.2-6.5c1.2,0.1,2.2,0.2,3.2,0.1c0.5,0,0.7,0.2,0.9,0.7c0.7,1.2,1.4,2.4,2.2,3.4
		c0.7,0.9,1.7,1.4,3,1c1.3-0.4,1.8-1.5,2-2.7c0.8-4.4-1.7-10.1-5.5-12.4c-0.6-0.3-1.2-0.7-1.5-1.2c-1.9-3.1-4.8-4.7-8.2-5.4
		c-1.6-0.3-3.3-0.2-5-0.1c-1.3,0.1-2.3,1-2.5,2.4c-0.2,1.3,0.4,2.3,1.4,2.9c1,0.7,2.2,1.2,3.3,1.8c0.3,0.2,0.6,0.4,0.7,0.7
		c0.1,1,0.2,2.1,0.2,3.2c-2-0.3-3.6-1.1-5.2-2c-1.2-0.6-2.3-1.3-3.5-2c-0.3-0.1-0.6-0.4-0.8-0.4c-3-0.2-5.8-1.3-8.6-2.5
		c-0.2-0.1-0.4-0.3-0.7-0.4c1-0.9,1.9-1.7,2.8-2.5c0.4,0.2,0.9,0.4,1.3,0.5c1.1,0.2,2.2,0.5,3.3,0.6c1.2,0.1,2.2-0.5,2.8-1.6
		c0.6-1.2,0.3-2.2-0.5-3.2c-0.5-0.6-1.1-1.2-1.7-1.7c-3.5-2.8-7.4-4.3-12-2.9c-0.3,0.1-0.6,0-0.9,0c-1.8,0-3.6-0.3-5.4,0
		c-3.2,0.6-5.7,2.5-7.7,5.1c-0.6,0.7-1,1.6-0.8,2.6c0.5,1.9,1.9,2.7,4,2.2c1.1-0.2,2.2-0.7,3.2-1.1c0.3-0.1,0.7-0.1,0.9,0
		c0.9,0.6,1.6,1.4,2.5,2.1c-0.4,0.3-0.8,0.5-1.1,0.7c-2.5,1.3-5.1,2.1-7.9,2.6c-0.4,0.1-0.7,0.4-1.1,0.5c-2.5,1.9-5.1,3.6-8.2,4.3
		c0-1.2,0-2.3,0-3.4c0-0.2,0.4-0.4,0.6-0.5c1.1-0.7,2.3-1.3,3.3-2c0.9-0.7,1.6-1.7,1.2-3c-0.4-1.3-1.4-2-2.8-2.2
		c-4.7-0.8-10,1.7-12.5,5.7c-0.4,0.6-0.9,1.1-1.5,1.5c-3.7,2.5-6.1,8-5.1,13c0.3,1.3,1,2.3,2.4,2.5c1.3,0.3,2.3-0.4,2.9-1.4
		c0.7-1.1,1.2-2.3,1.8-3.4c0.1-0.3,0.4-0.6,0.6-0.6c1.1-0.1,2.2-0.2,3.4-0.2c-0.8,3.3-2.3,6.2-4.2,9c0.6-0.5,1.1-1,1.7-1.5
		c2.1-2.2,4.6-3.9,7.5-4.7c2.2-0.5,3.2-1.5,3.7-3.8C506.2,198.3,508.3,195.4,510.8,192.7z M500.8,225.7c0,0-0.2,0.3-0.4,0.6
		c-1.3,1.9-2.5,4-3.1,6.3c-1,3.7,0.1,6.2,3.4,8c2.1,1.1,4.5,1.9,6.9,2c0.8,0.1,1.1,0.4,1.3,1.2c0.4,2.4,1.1,4.8,2.4,6.9
		c1.8,3,4.2,4,7.6,3.1c2.5-0.6,4.7-2,6.7-3.6c0.7-0.5,1.1-0.5,1.7,0c1.8,1.4,3.8,2.5,6.1,3.1c3.9,1.1,6.7-0.1,8.3-3.8
		c0.9-2,1.3-4.2,1.8-6.3c0.2-0.9,0.4-1.3,1.4-1.5c2.7-0.5,5.4-1.3,7.7-3c2-1.5,2.8-3.5,2.3-6c-0.5-2.9-2-5.3-3.7-7.5
		c-0.6-0.8-0.6-1.2,0-2c1.5-2,2.7-4.2,3.1-6.7c0.5-3.2,0.1-5.2-3.2-7.2c-2.2-1.3-4.6-2-7.1-2.2c-0.9-0.1-1.3-0.4-1.5-1.4
		c-0.3-2.5-1.2-4.8-2.4-6.9c-1.6-2.6-3.9-3.7-6.9-3.1c-1.1,0.2-2.2,0.6-3.1,1.1c-1.7,0.9-3.4,2-5.1,3.1c-0.4-0.3-0.9-0.7-1.4-0.9
		c-1.8-0.9-3.5-2-5.4-2.6c-3.8-1.2-6.5,0.1-8.3,3.7c-0.7,1.4-1.1,3-1.6,4.5c-0.3,1-0.1,2.3-0.7,2.9c-0.6,0.6-2,0.5-2.9,0.8
		c-1.4,0.5-2.9,0.9-4.2,1.6c-3.6,2-4.8,5-3.2,8.8C498.1,221.2,499.5,223.3,500.8,225.7z M489.5,221.7c-0.7-0.7-1.2-1.4-1.8-2
		c-0.6-0.5-0.6-1-0.3-1.6c0.7-1.6,1.1-3.2,0.5-5c-0.5-1.4-1.5-2.1-3-1.8c-0.7,0.2-1.5,0.4-2,0.9c-3.7,3.7-5.7,7.9-4.3,13.3
		c0.1,0.3,0.1,0.7,0.1,1c-1.1,5,1,10.5,5.3,13.3c1,0.6,2,1,3.1,0.4c1.2-0.6,1.7-1.7,1.5-2.9c-0.2-1.3-0.7-2.6-1.1-3.9
		c-0.1-0.3-0.2-0.8-0.1-1c0.7-0.9,1.4-1.7,2.2-2.7c1.8,2.9,2.5,6.1,3.3,9.2c0.1-0.1,0.1-0.2,0.1-0.3c-0.2-4.5,0.9-8.6,3.1-12.5
		c0.2-0.3,0.1-0.8-0.1-1.1c-1.3-2.1-2.3-4.3-2.8-6.7c-0.4-1.9-0.6-3.8-0.9-5.9C492,215.7,491.2,218.8,489.5,221.7z"/>
	<path d="M496.6,267.5c-2.5,1.6-5.1,2.7-7.8,3.2c-2.2,0.4-4.4,0.5-6.6,0.7c-0.2,0-0.7-0.3-0.7-0.5c-0.1-4.9,0.5-9.7,2.9-14.1
		c0.1-0.1,0.2-0.2,0.3-0.4c0.8,1.1,1.6,2.1,2.2,3.1c0.1,0.2,0,0.6-0.2,0.9c-0.6,1.6-1,3.3-0.8,5.1c0.1,0.8,0.4,1.2,1.2,1.3
		c1.9,0.2,3.6-0.3,5.3-1.1c0.6-0.2,1-0.2,1.5,0.1C494.7,266.4,495.5,266.8,496.6,267.5z"/>
	<path d="M566.9,193.4c-0.8-1.1-1.5-2-2.2-3.1c-0.1-0.2,0-0.7,0.1-1c0.6-1.6,1-3.3,0.8-5.1c-0.1-0.9-0.4-1.4-1.4-1.3
		c-1.7,0.3-3.5,0.7-5.2,1c-0.4,0.1-1,0-1.3-0.2c-0.9-0.5-1.7-1-2.8-1.7c1.4-0.7,2.7-1.4,4-1.9c3.3-1.3,6.8-1.8,10.4-1.9
		c0.8,0,0.8,0.5,0.8,1c-0.2,2.6-0.4,5.1-0.7,7.7C569.1,189.2,568.2,191.3,566.9,193.4z"/>
	<path d="M518.9,276.2c1.3,0.2,2.4,0.3,3.5,0.6c0.3,0.1,0.6,0.4,0.8,0.6c0.9,1.3,1.6,2.7,2.6,3.8c1.1,1.3,1.8,1.3,2.9,0
		c1-1.2,1.6-2.7,2.5-4c0.2-0.3,0.5-0.6,0.8-0.7c1-0.3,2.1-0.5,3.3-0.8c-1.2,5.4-4.1,9.5-7.8,13.3
		C523.5,285.4,520.3,281.4,518.9,276.2z"/>
	<path d="M576.6,215.3c5.4,1.1,9.6,4.1,13.3,7.8c-3.6,3.8-7.5,7-12.8,8.5c0.2-1.4,0.3-2.5,0.6-3.7c0-0.2,0.4-0.5,0.7-0.6
		c1.7-0.8,3.2-1.7,4.4-3.1c0.5-0.6,0.5-1.1-0.1-1.6c-1.2-1.3-2.7-2.2-4.3-2.9c-0.6-0.2-1-0.5-1.1-1.2
		C577.3,217.5,576.9,216.5,576.6,215.3z"/>
	<path d="M479.2,180.7c4.9-0.7,12.1,0.8,15,3.1c-1,0.7-1.9,1.5-2.9,2.1c-0.2,0.1-0.6,0-0.9-0.1c-1.7-0.6-3.5-1-5.3-0.8
		c-0.8,0.1-1.1,0.4-1.2,1.2c-0.2,1.9,0.4,3.7,1.1,5.4c0.2,0.5,0.2,0.8-0.1,1.3c-0.6,0.8-1.1,1.7-1.8,2.8
		C480,191,479.4,185.9,479.2,180.7z"/>
	<path d="M524.1,160.5c3.9,3.8,7.1,7.6,8.5,12.9c-1.4-0.2-2.5-0.4-3.7-0.6c-0.2-0.1-0.5-0.4-0.6-0.7c-0.8-1.7-1.7-3.2-3.2-4.3
		c-0.6-0.5-1.1-0.5-1.7,0.1c-1.4,1.3-2.3,2.8-3,4.5c-0.1,0.3-0.5,0.7-0.9,0.8c-1,0.3-2.1,0.4-3.4,0.7
		C517.4,168.5,520.6,164.5,524.1,160.5z"/>
	<path d="M557.3,265.9c1.1-0.8,2-1.5,3-2.1c0.2-0.1,0.7,0,1,0c1.4,0.3,2.8,0.8,4.2,0.9c2.4,0.1,2.3-0.5,2.2-2.4
		c-0.1-1.3-0.6-2.7-1-4c-0.2-0.7-0.2-1.1,0.2-1.6c0.6-0.8,1-1.6,1.6-2.5c0.4,0.5,0.7,0.9,1,1.4c1.6,2.7,2.3,5.7,2.6,8.8
		c0.1,1.3,0.1,2.6,0.3,3.8c0.1,1-0.4,1-1,1c-2.1-0.1-4.2-0.3-6.3-0.5C562.3,268.3,559.7,267.5,557.3,265.9z"/>
	<path d="M461.6,226.5c3-3.8,10-8.4,12.8-8.4c-0.2,1.2-0.3,2.4-0.6,3.6c-0.1,0.2-0.5,0.4-0.8,0.6c-1.7,0.7-3,1.8-4.2,3.2
		c-0.4,0.5-0.4,1,0,1.5c1.2,1.4,2.7,2.4,4.5,3c0.6,0.2,0.8,0.6,0.9,1.1c0.2,1,0.4,2,0.7,3.2C469.5,233.2,465.5,230.1,461.6,226.5z"
		/>
	<path d="M538.6,224.5c4,2.8,8.1,4.1,12.8,2.3c0.6,1,1.1,2,1.8,3.1c-1.8,0.9-3.6,1.2-5.4,1.3c-5.7,0.2-10.1-2.3-14.1-6
		c-0.4-0.3-0.5-0.6-0.1-1c3.8-3.7,8-6.5,13.6-6.7c1.9-0.1,3.8,0.2,5.7,0.9c-0.5,1.1-1,2.2-1.5,3.3
		C546.5,219.8,542.5,221.5,538.6,224.5z"/>
	<path d="M531.2,229.8c7.9-0.5,15.8,3.3,18.2,9.6c-1.1,0.4-2.2,0.8-3.3,1.2c-2.3-4.6-6.2-6.3-11-7.1c0,0.5-0.1,0.8,0,1.1
		c0.7,3.3,2.2,6.1,4.8,8.3c0.5,0.4,1.2,0.8,1.8,1c0.7,0.2,0.8,0.5,0.6,1.1c-0.2,0.9-0.5,1.7-0.7,2.6
		C535.1,245.7,530.6,237.1,531.2,229.8z"/>
	<path d="M523.8,250.5c-1,0.6-2,1.1-3,1.7c-2.8-5.7-1.3-13.8,5.2-20c4,3.8,7,8.2,7.2,14c0,1.6-0.3,3.1-0.5,4.7
		c-0.1,0.8-0.5,1-1.3,0.6c-0.1-0.1-0.2-0.1-0.3-0.1c-0.6-0.3-1.5-0.5-1.8-1c-0.2-0.4,0.2-1.3,0.3-1.9c0.4-1.7,0.1-3.3-0.3-5
		c-0.6-2.2-1.7-4.1-3.2-5.9C523.4,241.6,522,245.7,523.8,250.5z"/>
	<path d="M520.3,219.7c-7.4,0.6-14.8-2.2-18.2-9.4c1-0.4,1.9-0.8,2.9-1.1c0.2-0.1,0.7,0.2,0.8,0.4c1.7,3.9,5.3,5.2,9,6.2
		c0.5,0.2,1.1,0.2,1.8,0.2c-0.1-0.6-0.1-1-0.2-1.4c-0.9-3.1-2.2-6-4.9-8c-0.4-0.3-0.8-0.5-1.2-0.8c-1.3-0.7-1.3-0.7-0.9-2.1
		c0.1-0.4,0.2-0.8,0.4-1.2c0.1-0.2,0.2-0.4,0.2-0.5C516.2,203.8,520.8,211.7,520.3,219.7z"/>
	<path d="M540.4,201.2c0.4,1.1,0.8,2.2,1.2,3.3c-4.6,2.3-6.2,6.3-7.2,11.1c0.8-0.1,1.5-0.1,2-0.3c3-0.9,5.6-2.3,7.5-4.7
		c0.3-0.4,0.7-0.9,0.8-1.4c0.3-1.1,0.9-1.1,1.7-0.8c0.7,0.2,1.4,0.5,2.1,0.7c-0.9,5.5-10.8,11.3-17.6,10.4
		C529.3,213.1,534.6,202.7,540.4,201.2z"/>
	<path d="M512.9,225.2c-3.3-2.9-8.1-3.8-12.8-2.3c-0.6-1-1.2-2-1.7-3c5.7-3.1,14.7-0.7,19.9,5.2c-5.8,6.9-13.9,8.7-19.6,6.2
		c0.5-1,1-2.1,1.5-3.1C505.1,229.4,509.8,228.3,512.9,225.2z"/>
	<path d="M530.7,197.4c3.1,5.7,0.7,14.9-5.2,20c-6.6-5.9-8.6-13.5-6.2-19.7c1.1,0.5,2.2,1,3.2,1.5c-1.8,4.9-0.2,8.9,2.8,12.7
		c1.4-1.8,2.3-3.7,2.8-5.8c0.5-2.1,0.6-4.2-0.3-6.3c-0.1-0.2,0-0.7,0.2-0.8C529,198.4,529.8,197.9,530.7,197.4z"/>
	<path d="M511.3,248.4c-0.2-0.4-0.4-0.8-0.5-1.1c-0.8-1.9-0.7-1.8,0.9-3c3.4-2.4,4.8-5.9,5.4-10.1c-0.5,0-0.9,0-1.3,0.1
		c-3,0.8-5.7,2-7.8,4.4c-0.6,0.6-0.9,1.4-1.3,2.2c-0.2,0.5-0.5,0.7-1,0.6c-0.9-0.3-1.9-0.5-2.8-0.8c1.7-6.1,11.4-11.7,17.7-10.4
		C521.1,237.6,518.4,245.4,511.3,248.4z"/>
	<path d="M509.6,212.9c1.2-1.3,2.3-2.4,3.5-3.7c0.5,1,1,1.9,1.4,2.7c0.1,0.2-0.1,0.5-0.2,0.8c0,0-0.1,0-0.1,0.1
		c-0.6,0.5-1.2,1.5-1.6,1.5C511.6,214.1,510.7,213.4,509.6,212.9z"/>
	<path d="M542.1,237.2c-1.1,1.1-2.1,2.2-3.2,3.2c-0.2-0.1-0.3-0.2-0.5-0.2c-0.4-0.8-0.9-1.7-1.3-2.5c-0.1-0.2,0.1-0.5,0.2-0.8
		c0-0.1,0.1-0.1,0.2-0.2c0.5-0.5,1.1-1.4,1.5-1.3c1,0.1,1.9,0.7,2.9,1.2C541.9,236.8,542,237,542.1,237.2z"/>
	<path d="M538.2,208.4c1,1.1,2.1,2.2,3.3,3.6c-1.2,0.6-2.1,1.1-2.9,1.5c-0.2,0.1-0.5-0.1-0.7-0.2c-1.8-1.6-1.8-1.7-0.6-3.8
		c0.1-0.2,0.3-0.4,0.4-0.7C537.8,208.7,538,208.6,538.2,208.4z"/>
	<path d="M513.4,241.1c-1-1.1-2-2.2-3.3-3.5c1.2-0.6,2.1-1.1,3-1.6c0.1-0.1,0.4,0.1,0.5,0.1c0.1,0.1,0.2,0.2,0.3,0.4
		c0.4,0.5,1.3,1,1.3,1.4c-0.2,1-0.8,1.9-1.2,2.9C513.8,240.9,513.6,241,513.4,241.1z"/>
	<path d="M505.9,227.8c0-1.8,0-3.3,0-5c1.1,0.3,2,0.6,2.9,0.9c0.2,0.1,0.3,0.4,0.4,0.6c0.1,0.6,0.1,1.2,0,1.8c0,0.2-0.1,0.5-0.3,0.6
		C508,227.1,507,227.4,505.9,227.8z"/>
	<path d="M545.6,226.7c-0.5-0.1-0.8-0.1-1.1-0.2c-2-0.4-2.5-1.2-2.1-3.2c0-0.2,0.2-0.4,0.4-0.5c0.9-0.3,1.7-0.7,2.8-1.1
		C545.6,223.5,545.6,225,545.6,226.7z"/>
	<path d="M522.8,204.9c1.8,0,3.3,0,5,0c-0.3,1.2-0.6,2.2-0.9,3.2c-0.3,0-0.6,0-0.8,0c-0.7,0-1.8,0.2-2.1-0.2
		C523.4,207.2,523.2,206.1,522.8,204.9z"/>
	<path d="M528.8,244.7c-1.7,0-3.3,0-5,0c0.4-1.1,0.6-2.1,1-3c0-0.1,0.3-0.2,0.5-0.3c0.1,0,0.2,0,0.3,0c0.7,0,1.8-0.2,2.1,0.2
		C528.2,242.4,528.4,243.5,528.8,244.7z"/>
	<path d="M519.2,242.4c-0.2,1-0.3,2.1-0.6,3.1c-0.1,0.3-0.6,0.4-1,0.6c-0.1-0.4-0.5-0.9-0.3-1.1c0.5-0.9,1.2-1.8,1.8-2.6
		C519.1,242.3,519.1,242.3,519.2,242.4z"/>
	<path d="M533.5,242c0.6,0.8,1.2,1.6,1.8,2.4c0.1,0.2,0.1,0.6,0,0.9c-0.1,0.2-0.4,0.4-0.6,0.4c-0.3-0.1-0.6-0.4-0.7-0.6
		c-0.3-1-0.5-2-0.7-3C533.4,242,533.4,242,533.5,242z"/>
	<path d="M542.8,217.3c1-0.8,1.7-1.4,2.5-1.9c0.2-0.1,0.7-0.1,1,0c0.2,0,0.4,0.4,0.3,0.5c-0.2,0.3-0.4,0.7-0.7,0.7
		C545,216.9,544,217,542.8,217.3z"/>
	<path d="M508.6,232.5c-0.8,0.6-1.5,1.2-2.3,1.7c-0.2,0.2-0.7,0.1-1,0c-0.1,0-0.4-0.4-0.3-0.5c0.2-0.3,0.4-0.6,0.7-0.7
		c0.9-0.3,1.9-0.4,2.8-0.6C508.5,232.5,508.5,232.5,508.6,232.5z"/>
	<path d="M547.3,233c-2,0.9-2.6-1.1-3.9-1.3c0-0.1,0-0.2,0.1-0.3c1,0.2,2.1,0.3,3.1,0.5C546.8,232.1,547,232.6,547.3,233z"/>
	<path d="M518.1,207.7c-0.6-0.9-1.3-1.8-1.9-2.7c-0.1-0.2,0.3-0.7,0.4-1c0.3,0.2,0.8,0.3,0.9,0.6c0.3,1,0.5,2,0.7,3
		C518.1,207.6,518.1,207.6,518.1,207.7z"/>
	<path d="M508.1,218.1c-1-0.1-2-0.3-2.9-0.5c-0.2-0.1-0.5-0.4-0.6-0.7c-0.1-0.1,0.1-0.5,0.2-0.6c0.3-0.1,0.8-0.2,1-0.1
		c0.8,0.5,1.6,1.1,2.4,1.6C508.1,218,508.1,218.1,508.1,218.1z"/>
	<path d="M534,203.5c0.9,1.7-1.1,2.4-1.3,3.7C532.3,205.6,533,203.8,534,203.5z"/>
	<path d="M563.1,253.2c-0.6-0.4-1-0.7-1.5-1c-2-1.4-4.2-1.6-6.5-1c-0.8,0.2-1.3,0.7-1.5,1.5c-0.7,2.7,0,5,1.7,7
		c0.2,0.2,0.3,0.4,0.5,0.6c-0.1,0.1-0.1,0.2-0.2,0.3c-2.1,1.9-2.8,1.8-4.4-0.5c-2.3-3.6-2-7.2-0.1-10.8c0.1-0.2,0.3-0.4,0.5-0.5
		c4.4-2.4,8.3-2.5,12.3,0.9c0.2,0.2,0.4,0.6,0.3,0.8C564,251.4,563.6,252.2,563.1,253.2z"/>
	<path d="M497.3,262.1c1.3-1.5,2.3-2.9,2.4-4.7c0-1.2-0.2-2.5-0.5-3.7c-0.1-0.4-0.7-0.7-1.1-0.8c-2.6-0.7-5-0.2-7.2,1.6
		c-0.2,0.2-0.5,0.4-0.9,0.7c-0.5-0.9-1-1.7-1.4-2.5c-0.1-0.2,0.1-0.7,0.3-0.9c3-3.2,8.7-3.8,12.3-1.3c0.2,0.1,0.4,0.3,0.5,0.5
		c2.4,4.5,2.4,8.3-0.8,12.1c-0.4,0.4-0.7,0.6-1.2,0.3C499,262.9,498.2,262.5,497.3,262.1z"/>
	<path d="M532.2,271.2c-0.1-0.5-0.2-0.9-0.3-1.3c-0.4-2.5-1.9-4.2-3.9-5.6c-0.7-0.5-1.4-0.5-2.1,0c-2.4,1.5-3.8,3.5-3.9,6.4
		c0,0.6-0.2,0.8-0.8,0.7c-2.5-0.4-2.8-0.7-2.3-3.2c0.8-4.5,4-6.7,7.6-7.9c0.3-0.1,0.6-0.1,0.9,0c4.8,1.6,7.2,4,8,9
		c0.1,0.6-0.1,0.9-0.7,1.1C533.8,270.6,533,270.9,532.2,271.2z"/>
	<path d="M529.4,266.4c-0.8,0.9-1.6,1.8-2.5,2.8c-0.9-0.9-1.7-1.8-2.5-2.7C526.5,264.2,526.9,264.1,529.4,266.4z"/>
	<path d="M495.3,256.9c0-1.3,0-2.5,0-3.9c0.9,0.1,1.7,0.2,2.4,0.4c0.9,0.2,0.9,1.1,1,1.8c0.3,1.6,0.3,1.6-1.3,1.6
		c-0.4,0-0.7,0-1.1,0C496.1,256.8,495.7,256.9,495.3,256.9z"/>
	<path d="M557.9,255.3c-1.1,0-2.1,0-3.1,0c-0.2,0-0.6-0.3-0.6-0.5c-0.2-2.4,1-3.4,3.5-3C557.7,252.9,557.8,254.1,557.9,255.3z"/>
	<path d="M528.4,256.1c-2,1.4-1.7,1.3-3.6,0.1C526.1,254.8,526.4,254.8,528.4,256.1z"/>
	<path d="M505.4,248.7c-1.9-0.1-2.3-0.5-2.5-2.4C505.3,246.5,505.2,246.6,505.4,248.7z"/>
	<path d="M549.6,245.1c0.1,1.8-0.3,2.3-2.3,2.6C547.2,245.9,547.6,245.4,549.6,245.1z"/>
	<path d="M553.9,187.4c-0.7,1.6-1.6,2.9-1.9,4.3c-0.2,1.4,0.2,2.8,0.4,4.2c0.1,0.3,0.5,0.7,0.9,0.8c2.4,0.8,4.7,0.5,6.8-1
		c0.4-0.3,0.8-0.7,1.5-1.2c0.5,0.9,1,1.8,1.4,2.7c0.1,0.2-0.1,0.5-0.2,0.7c-3.1,3.2-8.6,3.9-12.4,1.4c-0.2-0.1-0.4-0.3-0.5-0.5
		c-2.2-3.9-2.5-8.3,0.6-12.1c0.5-0.6,0.9-0.8,1.5-0.4C552.7,186.8,553.4,187.1,553.9,187.4z"/>
	<path d="M572.2,218.6c-3.5,0.1-5.7,1.8-7.2,4.5c-0.3,0.6-0.3,1,0.1,1.6c1.5,2.5,3.6,3.9,6.6,3.9c0.2,0,0.4,0.1,0.8,0.1
		c-0.3,1-0.5,1.9-0.9,2.8c-0.1,0.3-0.8,0.4-1.2,0.4c-3.8-0.3-6.6-2.2-8.4-5.6c-0.9-1.6-1-3.1-0.2-4.8c1.8-3.7,4.5-5.8,8.6-6.1
		c0.3,0,0.8,0.2,0.9,0.5C571.7,216.7,571.9,217.6,572.2,218.6z"/>
	<path d="M567.3,221.3c0.1,0.1,0.3,0.2,0.4,0.3c0.8,0.7,1.6,1.4,2.4,2.1c-0.9,0.8-1.7,1.6-2.6,2.4
		C565,224.3,565.1,223.3,567.3,221.3z"/>
	<path d="M552.7,192.9c1.1-0.1,2.3-0.2,3.5-0.2c0,1.2,0,2.4,0,3.6C553.8,197,552.4,195.8,552.7,192.9z"/>
	<path d="M557,225.8c-1.4-2.1-1.3-1.7,0-3.6C558.2,223.9,558.5,223.9,557,225.8z"/>
	<path d="M548.7,203.4c-2.2-0.3-2.2-0.3-2.7-2.3C547.6,200.8,548.3,201.3,548.7,203.4z"/>
	<path d="M529.7,178.2c1,0.2,1.8,0.4,2.7,0.7c0.3,0.1,0.5,0.6,0.5,0.9c-0.1,3.6-1.7,6.3-4.7,8.3c-2.4,1.6-4.6,1.6-6.9,0.1
		c-3-1.9-4.7-4.5-4.9-8.1c0-0.5,0.1-0.8,0.6-0.9c0.8-0.2,1.6-0.5,2.6-0.8c0,3.4,1.7,5.6,4.4,7.1c0.6,0.3,1.1,0.3,1.7,0
		c2.2-1.3,3.6-3.2,3.9-5.8C529.6,179.3,529.6,178.9,529.7,178.2z"/>
	<path d="M522.2,183.3c0.9-0.9,1.7-1.8,2.5-2.7c0.8,0.9,1.6,1.7,2.4,2.6C525.2,185.6,524.4,185.5,522.2,183.3z"/>
	<path d="M523.2,193.5c1.8-1.3,2.3-1.3,3.6,0C525,194.8,524.7,194.8,523.2,193.5z"/>
	<path d="M488.5,196.4c1.9,1.6,3.8,2.6,6.2,2.3c2.7-0.3,3-0.6,3.4-3.3c0.2-1.7-0.3-3.2-1.2-4.6c-0.4-0.6-0.9-1.2-1.4-1.9
		c0.9-0.5,1.7-1,2.6-1.4c0.2-0.1,0.6,0.1,0.8,0.2c3.2,3.3,3.8,8.6,1.4,12.5c-0.1,0.2-0.3,0.4-0.5,0.5c-4,2.1-8.1,2.5-11.9-0.5
		c-0.8-0.6-1-1.2-0.5-2C487.9,197.7,488.2,197.1,488.5,196.4z"/>
	<path d="M493.8,198c0-1.2,0-2.4,0-3.6c1.1,0,2.3,0,3.5,0C497.7,197.4,496.9,197.9,493.8,198z"/>
	<path d="M504.3,202c0.1,1.7-0.8,2.5-2.4,2.6C501.8,202.9,502.4,202.2,504.3,202z"/>
	<path d="M479.3,231.2c0.8-0.2,1.3-0.3,1.9-0.4c2.3-0.5,3.9-2,5.1-3.9c0.4-0.7,0.5-1.3,0-2c-1.4-2.3-3.4-3.6-6.1-3.8
		c-0.3,0-0.5,0-0.8-0.1c-0.1,0-0.1-0.1-0.4-0.2c0.2-0.9,0.4-1.8,0.8-2.7c0.1-0.3,0.8-0.4,1.3-0.4c4,0.3,6.7,2.3,8.5,5.9
		c0.7,1.4,0.8,2.7,0.2,4.2c-1.7,3.9-4.5,6.2-8.8,6.5c-0.3,0-0.7-0.1-0.8-0.3C479.9,233.1,479.7,232.2,479.3,231.2z"/>
	<path d="M484.2,228.4c-0.9-0.8-1.8-1.6-2.7-2.5c0.9-0.8,1.8-1.6,2.6-2.4C486.4,225.5,486.6,225.9,484.2,228.4z"/>
	<path d="M494.5,223.9c1.2,1.7,1.2,1.7,0.1,3.4C493.3,226.2,493.2,225.3,494.5,223.9z"/>
</g>
<path d="M46.1,372.1c-0.2-0.5-0.5-0.9-0.5-1.3c0.1-6.9,0.9-13.8,2.7-20.5c4.1-15,12.7-26.8,25.1-36.1c1.5-1.2,3.1-2.2,4.7-3.3
	c0.7-0.5,1.5-0.5,2.3,0c10.3,6.6,18.7,15,24.4,25.9c4,7.6,6.3,15.8,7.1,24.3c0.3,3.1,0.3,6.3,0.4,9.4c0,0.7,0.3,1.1,0.9,1.5
	c6.6,3.8,12.7,8.3,18.1,13.8c9.7,9.9,15.7,21.6,17.5,35.4c0.4,3.1,0.5,6.2,0.7,9.3c0.1,0.6-0.2,1-0.7,1.3
	c-8.6,4.4-17.7,7.3-27.4,8.1c-8.1,0.7-16-0.5-23.7-2.7c-6.4-1.8-12.6-4.3-18.6-7.2c-0.7-0.3-1.2-0.3-1.8,0.1
	c-7.1,4.8-15,7.5-23.5,8.6c-10.3,1.4-20.6,1-30.8-1.3c-4.7-1.1-9.2-2.8-13.3-5.6c-0.5-0.4-0.7-0.8-0.7-1.4
	C8.6,413.9,14.8,400,25.8,388c4.6-4.9,9.6-9.3,15.1-13.1c1.3-0.9,2.9-1.5,4.3-2.2C45.6,372.4,45.9,372.2,46.1,372.1z M110.6,375.5
	c-0.3,1.9-0.6,3.5-0.9,5.2c-0.3,1.8-0.3,1.8,1.3,2.8c14.7,9.3,23.8,22.3,26.7,39.5c0.1,0.3-0.2,0.9-0.5,1c-4,2.1-8.2,3.7-12.6,4
	c-4.5,0.3-9,0.4-13.5,0.3c-7.4-0.2-14.5-2.1-21.1-5.4c-7.9-4-14.4-9.8-19.9-16.6c-2.6-3.2-5.4-6.4-6.9-10.3
	c-1.7-4.4-3.1-8.8-4.6-13.3c-0.2-0.7-0.5-1-1.2-0.6c-1.3,0.7-2.6,1.3-3.9,1.9c-0.7,0.3-1.1,0.8-0.9,1.6c0.6,2.4,1,4.9,1.8,7.2
	c2.4,6.7,6.3,12.4,10.7,17.9c3,3.7,5.8,7.6,10,10.2c1.7,1.1,3.3,2.3,5.1,3.4c10.1,6.2,20.9,10.3,32.8,10.9c11,0.5,21.5-1.8,31.4-6.6
	c0.3-0.1,0.6-0.7,0.6-1c-0.1-2.1-0.2-4.1-0.4-6.2c-1.2-9.4-4.8-17.8-10.5-25.4c-5.7-7.7-12.8-13.9-20.6-19.3
	C112.6,376.3,111.6,376,110.6,375.5z M98.3,377.5c0.2-1.9,0.4-4,0.6-6c0-0.3-0.3-0.7-0.6-0.8c-2.9-0.7-5.8-1.5-8.8-2
	c-6.5-1-13-0.9-19.5-0.1c-7.1,0.9-13.9,3-20.3,6.3c-8.6,4.4-15.9,10.5-22,17.9c-3.9,4.7-7.7,9.6-9.8,15.5
	c-2.3,6.4-4.3,12.9-4.3,19.9c0,1,0.3,1.4,1.2,1.8c11.2,4,22.7,5.5,34.6,4.4c9.2-0.8,17.8-3.5,25.9-7.8c1.3-0.7,1.4-0.9,0.3-1.8
	c-1-1-2.2-1.8-3.2-2.8c-0.5-0.5-1-0.4-1.5-0.2c-4.9,2.3-10,4-15.3,5.1c-4.4,1-8.9,1.6-13.5,1.4c-4.3-0.2-8.6-0.7-12.9-1.3
	c-2.4-0.3-4.7-1-7-1.8c-1.5-0.5-1.6-1-1.5-2.6c0.2-3.4,1-6.6,2.3-9.7c2.8-6.9,7.1-12.9,11.9-18.6c1-1.2,1.9-2.5,3.1-3.4
	c4.9-3.9,10.1-7.3,15.7-10c11.2-5.5,22.8-8,35.2-5.4C92,376.2,95.1,376.9,98.3,377.5z M79.2,323.3c0.2,0.2,0.4,0.3,0.5,0.4
	c6.4,5.3,11.6,11.6,15.4,19c3.7,7.4,5.6,15.4,6.1,23.6c0.6,9.5-1,18.6-5,27.3c-3.4,7.3-8.2,13.7-13.8,19.5c-0.9,0.9-0.9,1,0.1,1.8
	c1,0.8,2.1,1.4,3.2,2.2c0.7,0.5,1.2,0.4,1.8-0.2c8.2-7.5,14.1-16.4,17.4-27c2.5-8.1,3.2-16.5,2.9-24.9c-0.3-8.1-2.1-15.8-5.5-23.1
	c-4.9-10.6-12.6-18.9-21.9-25.7c-0.7-0.5-1.4-0.4-2.1,0.1c-10.4,7.1-18.1,16.3-22.7,28.1c-3.3,8.5-4.5,17.4-4.6,26.5
	c0,0.2,0.1,0.4,0.1,0.9c1.8-0.7,3.6-1.3,5.3-2c0.7-0.3,1-0.8,1.1-1.7c0.1-2.6,0.2-5.3,0.5-7.9c1.3-10.1,5.3-19.1,11.8-27
	C72.4,329.5,75.6,326.3,79.2,323.3z"/>
<path d="M359.2,389.8c-1.5,0.3-2.9,0.5-4.2,0.9c-1.6,0.5-3,0.1-4.4-0.4c-1.8-0.6-3.1-0.4-4.5,1.1c-3.1,3.4-7.3,4.7-11.7,4.8
	c-3.1,0.1-6.3,0.3-9.3-0.6c-4.5-1.4-7.8-4.3-10.1-8.2c-1.6-2.6-3.3-5.4-4-8.3c-1.9-7.7-1-16.1,7.5-21.9c4-2.8,8.6-4.5,13.4-5.1
	c4.9-0.6,9.3,1,13.2,3.9c0.8,0.6,1.6,1.4,2.4,2c0.3,0.2,0.7,0.5,1,0.4c3.5-0.5,7-0.6,10.4,0c0.1,0,0.1,0,0.2-0.1
	c-0.3-1.3-0.5-2.5-0.8-3.8c-0.5-2.1,0.2-4.1,0.7-6.1c0.1-0.6,0.2-0.9-0.3-1.3c-4-3.7-6-8.4-6-13.8c0-2.7,0-5.4,0.5-8
	c0.9-4.4,3.8-7.5,7.3-10.1c2.9-2.1,5.8-4.2,9.4-4.8c6.5-1.1,12.8-0.7,18.2,3.6c3.8,3,5.9,7.1,7.4,11.6c0.6,1.8,1.1,3.7,1.4,5.6
	c0.5,3.3-0.2,6.5-1.7,9.5c-1.1,2.1-2.7,4-4.1,6.1c-0.2,0.3-0.5,0.8-0.4,1.1c0.5,3.4,0.7,6.8,0,10.1c0,0.2,0,0.3,0,0.4
	c1.6-0.2,3-0.4,4.5-0.4c1.8,0,3.6,0.2,5.3,0.5c0.6,0.1,1,0,1.5-0.5c6.9-6.1,14.8-7.5,23.4-4.7c4.6,1.5,7.6,5,10,9
	c2.9,4.9,4.4,10.1,3.5,15.8c-0.8,5.7-3.7,10.2-8.3,13.5c-2.7,2-5.8,3.4-9,4.5c-0.2,0.1-0.4,0.1-0.6,0.2c-7.2,0.5-13.8-0.6-19.2-6
	c-0.3-0.3-0.8-0.4-1.2-0.4c-0.4,0-0.9,0-1.3,0.2c-2.5,1-4.9,0.6-7.3-0.1c-0.4-0.1-0.9-0.1-1.4-0.2c0.1,1.2,0.2,2.3,0.4,3.3
	c0.4,2.4,0,4.8-0.3,7.2c0,0.4,0.1,1,0.4,1.3c3.6,3.6,5.5,7.9,5.9,12.9c0.3,4.1-0.1,8-1.8,11.7c-2.4,5.1-6.5,8.3-11.7,10.2
	c-2.9,1-5.9,1.7-8.8,2.3c-0.9,0.2-1.9-0.2-2.8-0.5c-3.1-0.7-6-1.7-8.8-3.3c-6.6-3.6-10-9.2-10.3-16.7c-0.1-3.2,0-6.3,1.1-9.4
	c1-2.8,2.5-5.3,4.8-7.2c0.5-0.5,0.7-0.9,0.5-1.6c0-0.1,0-0.1-0.1-0.2c-1-3-1.1-6,0-9.1C359.1,390.6,359.1,390.3,359.2,389.8z
	 M386.2,356.1c0-1.4,0-2.7,0-4c-0.1-3.5-1.6-6.3-4.6-8.2c-2.7-1.7-5.7-2.4-8.9-2.7c-2.1-0.2-3.8-1-5.1-2.7c-1.5-2.1-2.2-4.5-2.4-7
	c-0.2-3.5,1.4-6.1,4.6-7.4c1.4-0.6,3-0.9,4.5-1.3c0.4-0.1,1-0.2,1.4,0c1.5,0.6,3,1.1,4.4,1.9c1.9,1,3.2,2.6,3.6,4.8
	c0.6,3.3,0,6.4-2.2,9c-0.2,0.3-0.4,0.6-0.6,0.7c2.2,1.6,4.4,3.2,6.6,4.8c2.6-3.7,4.7-7.6,4.7-12.4c-0.1-10.3-9.8-18.4-20-16.5
	c-3.9,0.7-7.6,2.1-10.6,4.8c-3.4,3.1-4.7,7.2-4.8,11.7c-0.2,6.9,2.7,12.1,8.9,15.3c3.3,1.7,6.9,2.6,10.6,3.2
	c0.3,0.1,0.8,0.3,0.9,0.6c0.3,1.5,1.2,2.4,2.4,3.1C381.6,355,383.8,355.6,386.2,356.1z M362.8,404.2c-2.7,2.3-4.6,4.9-5.1,8.3
	c-0.3,1.9-0.3,3.9-0.2,5.8c0.4,5.8,2.9,10.3,8.2,12.9c2.2,1.1,4.7,1.9,7.1,2.5c5.7,1.4,11.8-1.1,15.2-5.8c2.1-2.9,3.2-6.3,3.9-9.8
	c1-5-0.3-9.4-3.7-13.2c-2.3-2.5-5.2-3.9-8.4-4.8c-2.4-0.6-4.8-1.1-7.3-1.6c-0.2-1.6-1.2-2.8-2.6-3.6c-1.4-0.7-2.8-1.2-4.2-1.9
	c-0.4-0.2-0.7-0.4-1.1-0.7c-0.4-0.3-1-0.6-1.2,0.2c-1.2,4.1,0,9,3.4,11.6c2,1.5,4.2,2.3,6.7,2.7c2.5,0.3,4.8,0.9,7,2.2
	c1.7,1,3,2.5,3.3,4.5c0.5,2.8,0.2,5.5-1.2,8.1c-1.5,2.7-3.6,4.2-6.8,4.1c-0.6,0-1.2,0-1.8,0c-3.2-0.1-5.6-1.5-7.1-4.4
	c-2-4-2.3-7.8,1.1-11.4c0.3-0.3,0.5-0.6,0.9-1.1C365.6,408.7,364.1,406.6,362.8,404.2z M392.5,385.6c1.8,0.3,3.7,0.7,5.7,0.3
	c4.1-0.8,6.6-3.6,8.1-7.3c1.2-2.7,1.7-5.7,2.1-8.6c0-0.3,0.1-0.8,0.4-1c1.6-1.3,3.1-2.7,4.9-3.7c3-1.7,7-0.9,9.4,1.6
	c1.9,1.9,2.7,4.3,3.1,6.9c0.5,2.5-0.2,4.6-1.9,6.4c-1.9,2-4.4,2.7-7,3.3c-1.4,0.3-2.7,0.1-3.9-0.7c-1.1-0.6-2.1-1.4-3.1-2.1
	c-0.2-0.2-0.5-0.3-0.5-0.4c-1.7,2.1-3.3,4.2-5,6.4c0.3,0.3,0.7,0.6,1.1,0.9c3,2.6,6.6,3.7,10.5,3.7c5.3,0.1,9.9-1.6,13.4-5.8
	c1.8-2.2,3.1-4.8,3.9-7.6c0.2-0.7,0.4-1.4,0.4-2.2c0-4.3-1.2-8.4-3.3-12.1c-1.8-3.2-4.4-5.5-8-6.4c-2-0.5-4.1-0.7-6.1-0.7
	c-7.8,0.1-13.3,3.9-16.1,11.2c-0.8,2.2-1.3,4.5-1.8,6.8c-0.2,0.9-0.5,1.4-1.2,1.9c-0.9,0.6-2,1.3-2.5,2.2
	C394.2,381,393.4,383.3,392.5,385.6z M356.8,362.8c-1.5,0-2.8,0-4.1,0c-3.5-0.1-6.1,1.4-8,4.3c-2.3,3.5-3.2,7.6-3.9,11.7
	c-0.1,0.4-0.2,0.9-0.5,1.2c-4.3,4.3-8.7,4.9-13.8,1.6c-1.5-1-2.6-2.3-3-4c-0.7-3.4-0.1-6.7,2-9.6c1-1.3,2.3-2.4,3.9-2.6
	c2.6-0.4,5.2-0.5,7.7,0.8c1,0.6,2,1.2,3,1.8c0.9-2.7,3-4.4,4.8-6.5c-4.3-3.2-9-5.1-14.4-4.7c-5.9,0.4-10.1,3.4-12.6,8.6
	c-1.2,2.5-1.9,5.2-2.7,7.9c-0.2,0.7-0.3,1.6-0.1,2.3c0.7,3,1.6,6,3.2,8.7c2.3,3.9,5.5,6.6,10.2,7.2c2.4,0.3,4.8,0.2,7.2,0.1
	c3,0,5.6-1.1,7.8-3.1c3.7-3.4,5.4-7.9,6.3-12.7c0.4-2.2,1.2-4,3-5.1c1.4-0.9,2.2-2,2.6-3.5C355.5,365.6,356.2,364.3,356.8,362.8z
	 M386.6,361.4c-3.9-3.2-8.2-4.8-14-5.4c-1.9-3.8-5.7-4.9-9.2-6.5c-0.1,0.4-0.2,0.7-0.2,0.9c-1.3,6.1,1.2,11,7,13.3
	c2.4,0.9,4.9,1.3,7.4,1.9c0.7,0.2,1.4,0.2,2,0.8c0.7,0.7,1.5,1.1,2.1,1.5C383.4,365.7,385,363.6,386.6,361.4z M398.8,362.8
	c-1.3,0-2.6,0.1-3.8,0c-4-0.2-6.7,1.6-8.7,4.9c-2,3.4-2.9,7.1-3.6,10.9c-0.1,0.4-0.4,0.7-0.7,1.1c-0.5,0.6-1,1.3-1.6,2.1
	c3.2,0.7,4.9,3,7.1,4.9c0.7-1.1,1.3-2.1,1.8-3.1c1.8-3.5,2.8-7.2,3.4-11c0.1-0.3,0.3-0.8,0.6-0.9c2.7-1,4.1-3.1,4.3-5.9
	c0-0.2,0.1-0.5,0.2-0.6C398.8,364.6,398.7,363.8,398.8,362.8z M356.1,376.8c-0.9,0.6-2,1-2.6,1.7c-0.8,0.9-1.3,2-1.7,3.1
	c-0.5,1.3-0.9,2.6-1.4,4.2c1.5,0.1,3.2,0.3,4.8,0.1c3.5-0.5,6.2-2.5,8.4-5.3c0.3-0.3,0.4-0.8,0.5-1.3c0.8-4.3,1.3-8.7,4-12.4
	c-2.1-0.9-3.8-2.4-5.3-4.1c-0.8-0.8-1.1-0.9-1.8,0.1c-0.7,1.1-1.5,2.3-1.9,3.5C358,369.9,357.1,373.4,356.1,376.8z M386.1,398.7
	c0-2,0.1-3.9,0-5.8c-0.3-2.7-1.6-5-3.9-6.5c-2.1-1.4-4.4-2.2-6.8-2.4c-2.8-0.2-5.1-1.2-7.3-2.9c-0.2-0.1-0.3-0.3-0.5-0.3
	c-0.2,0-0.5,0.1-0.6,0.2c-1.2,1.7-2.3,3.4-3.5,5c-0.7,1-0.8,1.5,0.2,2.1c1,0.7,2,1.3,3.1,1.6c3,0.8,6.1,1.5,9.2,2.3
	c0.3,0.1,0.7,0.2,0.8,0.4c1.1,2.4,3.2,3.7,5.5,4.7c1.1,0.4,2.1,1,3.1,1.5C385.6,398.7,385.9,398.7,386.1,398.7z"/>
<path d="M142,522.5c0.3,8.3-2.5,15.9-7.6,22.8c-0.4,0.5-0.6,0.9-0.2,1.6c0.3,0.4,0.2,1,0.2,1.6c-0.4,11.2-5.3,20.2-13.5,27.6
	c-5.6,5-12,8.9-18.8,11.9c-2.1,0.9-4.5,1-6.7,1.4c-6.4,1.1-12.7,0.6-18.8-1.5c-0.3-0.1-0.8-0.1-1.2,0c-4.8,2-9.8,2.3-14.9,2
	c-13.2-0.8-23.3-7.4-31.6-17.2c-2.2-2.6-4.2-5.3-6-8.2c-2-3.1-3.1-6.7-3.8-10.4c-0.5-2.9-0.7-5.8-1.1-8.8c-0.1-0.7-0.3-1.4-0.7-1.9
	c-4-5.2-6.1-11.1-6.7-17.5c-0.7-7.7,0.1-15.2,2.9-22.4c3.3-8.6,9-15.3,16.4-20.6c1.7-1.2,3.6-2.4,5.4-3.5c0.7-0.4,1.6-0.6,2.3-1
	c1.4-0.8,2.8-1.5,4-2.6c2.2-2,4.2-4.3,6.3-6.5c0.3-0.3,0.6-0.7,1-0.9c6.3-3.7,12.9-6.8,20.1-7.9c11.5-1.9,22.3,0.2,32.2,6.4
	c4.5,2.8,8.3,6.4,11.7,10.3c0.3,0.4,0.9,0.7,1.4,0.7c2,0.3,3.8,1.1,5.6,2.2c4,2.5,7.2,5.8,10.3,9.2c0.8,0.9,1.6,1.9,2.5,2.9
	c4.1,4.3,5.9,9.8,7.6,15.4C141.5,512.4,142.1,517.3,142,522.5z M78.9,584.2c1.6,0.2,2.9,0.4,4.2,0.6c8,1.1,15.7,0,23-3.4
	c7.4-3.5,12.9-9,17.3-15.8c2.3-3.6,4.6-7.1,5.4-11.4c0.7-3.6,1.4-7.2,0.6-11c-1.1-5.3-3.8-9.5-8.2-12.7c-5.4-3.8-11.2-5.8-17.9-4.7
	c-3.8,0.6-7.1,2.3-10.3,4.3c-2.1,1.3-2.1,1.3-1.5,3.7c0.7,3.1,2.4,5.8,4.6,8c3.2,3.2,6.2,6.5,11.1,7.5c3.8,0.8,7.6,1.2,11.4,0.2
	c0.3-0.1,0.7-0.5,0.7-0.7c-0.1-2.6-0.7-5.1-1.7-7.6c-2.9,0.7-5.8,0.8-8.6-0.3c-2.8-1.1-4.9-3.1-6.7-5.7c0.9-0.4,1.6-0.9,2.4-1
	c1.7-0.1,3.4-0.1,5.1,0c2.7,0.1,5.2,1,7.1,3.1c3.1,3.4,4.9,7.4,4.8,12.1c-0.1,7.8-3.5,14-9.3,19c-5.2,4.4-11.4,7.1-17.8,9.1
	c-0.3,0.1-0.7,0.1-1.1,0.1c-2.4,0-4.8,0-7.1,0c-0.3,0-0.8,0.1-0.9,0.3c-1,2.2-3,3.4-4.8,4.9C80,583.3,79.5,583.7,78.9,584.2z
	 M54.8,483.4c-1.4,1.9-2.4,3.9-2.8,6.2c-0.2,1,0,1.7,1.1,2c0.4,0.1,0.8,0.4,1.1,0.7c3.7,2.4,6.1,5.8,6.4,10.3
	c0.1,1.6-0.9,2.2-2.4,1.5c-2-1-3.8-2.2-5.3-3.9c-2.4-2.7-3.9-6-3.2-9.5c1.5-7.9,5.8-13.8,13.5-16.9c5.2-2.1,10.7-2.5,16.3-2.1
	c6.7,0.5,12.5,2.9,17.4,7.4c0.8,0.8,1.6,1.5,2.7,0.6c0.3-0.2,0.6-0.3,1-0.3c1.9-0.1,3.8-0.2,5.7-0.3c0.3,0,0.7,0,1.1-0.1
	c-0.2-0.3-0.2-0.4-0.3-0.5c-3.6-4.5-7.9-8-13.1-10.4c-7.8-3.5-16-4.3-24.4-3.2c-12.7,1.5-21.7,8.1-27.4,19.5c-0.2,0.3-0.3,0.7-0.3,1
	c-0.2,2.6-0.5,5.2-0.4,7.8c0.2,6.7,2.9,12,8.6,15.8c4.2,2.8,8.9,4.2,13.9,5c2.1,0.3,3.4-0.3,4.4-2.3c0.3-0.6,0.5-1.3,0.7-2
	c0.7-3.3,0.7-6.5,0.2-9.8C67.8,491.7,62.5,486.6,54.8,483.4z M131,541.6c0.2-0.1,0.3-0.1,0.3-0.2c3.1-4.1,5.4-8.5,5.8-13.7
	c0.3-3.8,0.3-7.7,0-11.6c-0.4-6.3-2.3-12.1-5.6-17.5c-4.4-7.1-10.7-12.1-18.1-15.8c-0.9-0.5-2-0.6-3.1-0.9c-1-0.2-1.9-0.3-2.9-0.3
	c-5.2-0.5-10.1,0.5-14.4,3.7c-4.8,3.6-7.5,8.7-9.4,14.2c-0.1,0.2-0.1,0.4-0.1,0.6c0.1,2.7,0.1,5.4,0.3,8c0.2,1.6,0.7,3.2,1.2,4.8
	c0.3,0.8,0.8,1.4,1.8,1.4c3.6,0,7-0.4,10.4-1.7c5.8-2.3,9.5-6.6,12-12.2c1.1-2.4,2.1-4.9,1.6-7.9c-2.7-0.2-5.4-0.3-8.1-0.5
	c-0.6,6.3-5,11.8-10,12.8c-0.7-1.2-0.8-1.3-0.5-2.6c0.5-1.7,1-3.5,1.7-5.1c1.5-3.4,3.9-6,7.6-6.9c1.8-0.4,3.6-0.4,5.4-0.5
	c4.2-0.1,7.9,1.3,11.1,4.1c6,5.2,9.3,12.1,11.3,19.5c1.7,6.3,1.2,12.8-1.7,18.9c-0.2,0.4-0.3,1-0.1,1.3
	C129.2,536.2,130.6,538.6,131,541.6z M23.3,547.1c-0.5,6.3,0.9,11.8,4.1,16.9c3.1,5,7.3,9,12.2,12.3c3.6,2.4,7.3,5,11.3,6.6
	c5.6,2.3,11.7,2.9,17.8,2.1c10.8-1.5,18.8-10,19.5-20.8c0.6-9.6-3.5-16.6-11.9-21.2c-0.6-0.3-1.1-0.3-1.6,0.2
	c-1.3,1.3-2.8,2.4-4.1,3.8c-5.4,6.1-7.8,13.1-5.4,21.3c0.6,2.2,1.7,4.3,2.5,6.5c2.5-0.8,4.7-1.7,6.4-3.5c0.6-0.6,0.8-1.2,0.4-2.1
	c-1.4-3.1-1.7-6.3-1.1-9.6c0.4-2.1,1.4-3.9,3.2-5.2c2.3,2.8,3.1,6,3.1,9.5c-0.1,5.8-2.5,9.8-7.9,11.8c-9.8,3.8-19,2.4-27.3-4
	c-4.9-3.7-8.4-8.7-11.3-14c-0.5-0.9-0.8-1.9-1-2.8c-0.3-1.4-0.8-2.7-1.9-3.5c-1.3-1-2.8-1.7-4.2-2.6c-0.6-0.3-1.4-0.3-1.7-1.2
	C24.1,547.4,23.7,547.3,23.3,547.1z M40.7,482.3c-0.4,0.1-0.6,0.1-0.7,0.2c-3.4,1.4-6.6,3.1-9.6,5.3c-5.1,3.8-8.2,9-10.9,14.5
	c-3.7,7.4-4.9,15.4-4.3,23.6c0.4,4.9,1.4,9.6,4.3,13.6c5.3,7.5,12.6,11,21.7,10.5c5.2-0.2,9.8-2.1,13.4-6c3.2-3.3,5-7.4,6.4-11.7
	c0.3-0.8,0.1-1.3-0.5-1.8c-4.9-4-10.5-5.5-16.8-5.1c-6,0.4-10.7,3-14.8,7.2c-0.4,0.4-0.5,0.8-0.1,1.3c1.4,1.7,2.8,3.3,4.7,4.5
	c0.6,0.4,1,0.3,1.5-0.1c1.9-1.6,4-3,6.4-3.9c2.6-1,5.2-1,7.8,0.1c1,0.4,1.1,0.8,0.4,1.6c-3.8,4.9-8.8,6.4-14.7,5.3
	c-4.3-0.8-7.1-3.6-9-7.3c-4.1-8-5-16.3-2-24.9c2.5-7.3,7.4-12.7,13.6-17.2c0.5-0.3,1-0.5,1.6-0.9C38.6,488.3,39.5,485.4,40.7,482.3z
	"/>
<path d="M289.1,533.1c-6.2,2.1-12.4,4.1-18.7,6.2c0.3,1.3,0.5,2.4,0.8,3.5c2.1,8,5.1,15.7,8.9,23.1c0.5,1,1.4,1.9,2.1,2.9
	c0.9,1.5,1.8,3,2.6,4.5c0.4,0.8,0.3,1.4-0.5,2.1c-3.4,3.2-6.8,6.5-10.2,9.7c-1,1-1.4,1-2.6,0.2c-5.6-3.7-11.5-7.1-17.8-9.6
	c-4.6-1.8-9.3-3-14.2-3.4c-0.9-0.1-1.4,0.2-1.7,1.1c-1.7,5.1-3.4,10.2-5.1,15.4c-0.1,0.3-0.2,0.7-0.3,1.1c-0.4,0-0.7,0-1.1,0
	c-4.5,0-9,0-13.5,0c-1,0-1.6-0.4-1.9-1.3c-1-3.1-2.1-6.1-3.1-9.2c-0.4-1.2-0.7-2.3-1-3.5c-0.3-1.4-0.9-2.6-1.8-3.6
	c-0.3-0.3-0.8-0.5-1.1-0.5c-6.4,0.9-12.4,2.9-18.2,5.6c-4.8,2.2-9.3,4.9-13.7,7.9c-1.2,0.8-1.9,0.8-2.9-0.2
	c-3.5-3.5-6.9-7.1-10.4-10.7c-0.6-0.6-0.3-1.1,0-1.6c3.4-5.4,6.6-11,9.3-16.8c1.9-4.2,3.6-8.5,4.2-13.2c0.1-0.5,0.1-1.1,0.2-1.6
	c0.1-0.5,0.2-1.1,0.4-1.8c-0.1-0.1-0.4-0.2-0.7-0.4c-5.2-2.2-10.5-4.1-16-5.2c-0.9-0.2-1.3-0.5-1.2-1.5c0.1-2.2,0.1-4.5,0-6.7
	c-0.1-3-0.2-5.9-0.3-9.1c6.1-1.6,12.4-3.4,18.7-5.9c-1.3-4.4-2.5-8.8-4-13.1c-2.5-7.3-5.8-14.1-10.5-20.3c-0.6-0.8-0.6-1.7,0.1-2.5
	c2.9-2.9,5.9-5.8,8.8-8.7c0.6-0.6,1.3-1.2,1.9-1.8c0.6-0.6,1.1-0.4,1.7-0.1c4.3,2.5,8.4,5.1,12.8,7.4c6.4,3.3,13.1,5.6,20.2,6.8
	c0.8,0.1,1.1-0.1,1.3-0.8c1.6-5.3,3.2-10.5,4.7-15.8c0.3-1,0.9-1.4,1.8-1.4c5.3,0,10.6,0,16,0c1.1,5.9,3.2,11.5,5,17.2
	c0.3,0.9,0.6,1,1.5,0.8c11.1-1.9,21.1-6.7,30.5-12.6c0.7-0.5,1.5-0.9,2.2-1.4c0.9-0.7,1.6-0.6,2.3,0.2c2.1,2.1,4.2,4.1,6.2,6.2
	c1.3,1.3,2.6,2.7,3.9,4.1c0.8,0.9,0.8,1.4,0.2,2.5c-2.9,5.1-5.9,10.1-8.5,15.3c-2.4,4.7-4.1,9.7-4.9,15.1c-0.4,3-0.5,3,2.4,4
	c4.7,1.6,9.4,3.1,14.1,4.6c0.7,0.2,0.9,0.5,0.9,1.2c0,2.6-0.1,5.2,0,7.8C288.7,528,288.9,530.5,289.1,533.1z M179.3,570.3
	c-0.1-0.1-0.2-0.3-0.3-0.4c0.1-0.4,0.2-0.7,0.4-1.1c1.5-3.2,3-6.4,4.4-9.7c2-4.8,3.8-9.6,4.5-14.8c0.3-2.3,0.3-2.3-1.6-3.4
	c-1.3-0.8-2.7-1.6-4.1-2.5c-0.2,1.1-0.3,2-0.4,2.9c-1.4,8-4.3,15.4-8,22.5c-1.5,2.9-3.2,5.8-4.8,8.7c-0.2,0.4-0.2,1.1,0,1.3
	c2,2.3,4,4.4,6.1,6.7c0.3-0.2,0.6-0.4,0.9-0.5c4.3-2.3,8.5-4.8,12.9-6.8c8.5-4,17.5-6.3,26.8-6.9c3.3-0.2,6.7-0.2,10-0.3
	c0.4,0,0.9-0.1,1-0.3c1-2.2,1.9-4.4,2.9-6.7C212.1,558.5,195.2,561.9,179.3,570.3z M237.7,566.5c12.7,2.4,24.4,6.9,35.1,14
	c2.4-2.6,4.7-5.1,7-7.6c-0.2-0.3-0.4-0.5-0.5-0.8c-2.1-3.5-4.4-6.8-6.2-10.4c-4.3-8.6-6.8-17.8-7.6-27.4c-0.3-3.8-0.8-7.6-1.2-11.4
	c-0.1-0.6-0.3-1-0.9-1.3c-1.4-0.7-2.8-1.5-4.3-2.3c-0.3-0.1-0.6-0.2-0.9-0.2c-1,18,3,34.8,10.9,50.8c-0.5-0.1-0.9-0.2-1.3-0.3
	c-4.8-2-9.5-4-14.3-5.9c-3.7-1.4-7.4-2.7-11.4-3c-0.4,0-0.9,0.1-1.1,0.4C239.9,562.8,238.9,564.6,237.7,566.5z M168.6,476.7
	c1.5,2.4,3,4.5,4.3,6.8c1.3,2.3,2.5,4.6,3.5,6.9c5.2,11.6,7.2,23.8,7.3,36.4c0,0.8,0.2,1.2,0.9,1.5c1,0.4,1.9,0.9,2.8,1.4
	c0.9,0.5,1.7,1,2.6,1.4c1.3-18.2-3-35.1-11.1-51.5c0.7,0.2,1,0.3,1.4,0.5c4.7,2,9.3,4.1,14,6.1c3.8,1.6,7.7,2.8,11.8,3.5
	c0.7,0.1,1,0,1.3-0.7c0.5-1,1.1-2,1.6-3c0.5-0.8,1-1.6,1.5-2.6c-0.3-0.1-0.5-0.1-0.6-0.1c-3.9-0.4-7.7-1.3-11.4-2.6
	c-7.7-2.6-14.8-6.2-21.7-10.4c-0.9-0.6-1.6-0.5-2.3,0.2C172.6,472.6,170.6,474.7,168.6,476.7z M218.4,490.8
	c18.1,1.5,34.9-2.7,50.9-10.8c-0.1,0.7-0.2,1.3-0.4,1.8c-2.3,4.5-4.5,9-6,13.8c-1.2,3.8-2.1,7.7-2.3,11.7c0,0.5,0.1,1.2,0.4,1.3
	c1.5,1,3.1,1.8,4.9,2.7c2.7-12.6,6.5-24.6,14.1-35.1c-2.2-2-4.3-3.9-6.4-5.9c-0.6-0.6-1.1-0.6-1.8-0.2c-3.4,1.9-6.8,4-10.3,5.7
	c-10.2,5-20.9,7.8-32.2,8.3c-2.6,0.1-5.2,0-7.4,0c-1.1,2.1-2.1,3.8-3,5.5C218.5,490.2,218.5,490.5,218.4,490.8z M256.8,534.3
	c-0.4,0.2-0.7,0.3-1,0.5c-5,3.2-9.5,6.9-13.5,11.3c-7.8,8.4-13.2,18.2-17.2,28.9c-0.2,0.5-0.2,1.1-1,1c-0.8,0-0.7-0.7-0.9-1.1
	c-0.7-2-1.4-4-2.2-6c-0.2-0.5-0.7-1.1-1-1.1c-1.9,0.1-3.8,0.3-5.7,0.5c-0.6,0.1-0.7,0.5-0.4,1.1c2.3,5.1,4.6,10.1,5.1,15.8
	c0.1,0,0.2,0.1,0.3,0.1c3.2,0,6.4,0,9.5,0c0.6,0,0.7-0.4,0.7-0.8c0.3-3.7,1.4-7.2,2.8-10.6c3-7.2,7.4-13.6,12.2-19.6
	c2.3-2.9,4.5-5.9,7.6-8.1c1.7-1.2,3.2-2.5,4.8-3.7c0.3-0.2,0.6-0.7,0.5-1.1C257.4,539,257.1,536.7,256.8,534.3z M191.5,515.7
	c0.4-0.2,0.8-0.3,1.2-0.5c8.6-5.2,15.5-12.1,21-20.5c4-6.1,7.1-12.6,9.6-19.4c0.2-0.4,0.3-0.9,0.9-0.7c0.3,0.1,0.7,0.4,0.9,0.7
	c0.3,0.6,0.5,1.3,0.7,2c0.7,1.8,1.3,3.6,1.9,5.1c2.5-0.1,4.7-0.2,6.9-0.2c-1.8-5.7-3.6-11.2-5.4-16.8c-3.2,0-6.7,0-9.9,0
	c-0.9,3.2-1.5,6.2-2.6,9.2c-2.5,7-6.4,13.3-10.8,19.3c-1.7,2.3-3.2,4.7-5.2,6.6c-2.9,2.7-6.2,4.9-9.3,7.4c-0.2,0.2-0.5,0.5-0.4,0.7
	C191.1,510.8,191.3,513.1,191.5,515.7z M215,557.7c-0.3-0.5-0.4-1-0.6-1.3c-4.4-6.9-9.9-12.8-16.4-17.8c-7.3-5.6-15.3-9.7-24-12.7
	c-0.5-0.2-0.8-0.3-0.8-0.9c0-0.7,0.5-0.7,0.9-0.8c2.2-0.6,4.4-1.2,6.6-1.9c0.3-0.1,0.8-0.4,0.8-0.6c0.1-2.4,0.2-4.8-0.6-7.1
	c-5.3,2.2-10.5,4.6-16.3,5.2c0,3.5,0,7,0,10.5c4.1,0.5,7.9,1.7,11.6,3.3c7.7,3.3,14.4,8.1,20.8,13.4c2.7,2.2,5.2,4.5,7.2,7.4
	c0.9,1.2,1.9,2.3,2.9,3.4c0.3,0.3,0.7,0.6,1.1,0.6C210.3,558.1,212.5,557.9,215,557.7z M233.5,492.7c9.7,16.3,24.5,25.6,41.6,31.8
	c0.3,0.8-0.1,1.1-0.8,1.3c-2.2,0.8-4.5,1.5-6.7,2.3c-0.3,0.1-0.7,0.5-0.7,0.7c0.1,2.3,0.3,4.6,0.4,7.1c0.9-0.4,1.4-0.8,2-1
	c4.3-2.2,9-3.5,13.7-4.6c0.8-0.2,1-0.5,0.9-1.2c0-1.4,0.1-2.8,0.2-4.1c0.1-1.6,0.3-3.2,0.4-4.9c-2.1-0.6-4.3-1.2-6.3-1.9
	c-9.4-3-18.1-7.3-25.6-13.7c-3.9-3.3-6.9-7.4-10.4-11.1c-0.5-0.5-0.8-1.3-1.2-2C238.7,491.9,236.2,492.3,233.5,492.7z"/>
<g>
	<path d="M399.5,479.5c1.6-1.8,3.1-3.6,4.7-5.3c3.8-4,7.7-7.8,12.5-10.7c3-1.8,6.1-3.2,9.7-3.3c0.2,0,0.5,0,0.7,0
		c4.8,1.2,9.4,2.9,13,6.6c3.3,3.3,4.2,7.5,3.9,12c-0.3,4.8-2.4,8.8-5.4,12.4c-1.8,2-3.8,3.8-5.7,5.7c-6.4,6.4-12.8,12.8-19.3,19.2
		c-2.1,2.1-4.3,4.1-6.4,6.1c-0.5,0.5-1,0.5-1.5,0c-2.1-2.2-4.2-4.4-6.3-6.6c-0.5-0.5-0.1-0.9,0.2-1.2c1.6-1.8,3.2-3.6,4.8-5.3
		c7.4-7.4,14.9-14.7,22.4-22.1c1.7-1.7,3.3-3.6,4.8-5.6c1.7-2.3,1.2-4.7-0.1-6.9c-1.3-2.2-3.3-3.2-5.8-3c-0.9,0.1-1.8,0.5-2.5,1
		c-2.8,2.2-5.6,4.6-8.3,6.9c-1.8,1.6-3.4,3.4-5.2,5.1c-0.3,0.3-1,0.5-1.3,0.3C405.5,483.2,402.6,481.4,399.5,479.5z"/>
	<path d="M419,554.7c2.3-4.6,4.9-8.7,6.2-9.7c0.8,0.8,1.7,1.6,2.5,2.4c4.7,4.6,9.3,9.4,13.3,14.7c2.9,3.9,3.4,8.1,2.8,12.6
		c-0.7,4.8-3.2,8.4-7.2,11c-2.8,1.8-5.7,3.2-9.1,3.6c-3.1,0.4-6-0.3-8.7-1.7c-4.5-2.4-8.3-5.8-11.8-9.4c-2.2-2.3-4.2-4.7-6.4-7
		c-1-1-2.1-1.9-3.1-2.9c-5.2-5.2-10.3-10.5-15.5-15.7c-0.2-0.2-0.3-0.4-0.6-0.8c0.8-0.7,1.6-1.5,2.3-2.2c1.5-1.5,3-3,4.5-4.5
		c0.6-0.7,1.1-0.7,1.8,0c5.2,5.2,10.3,10.4,15.6,15.5c5.7,5.5,11.5,10.8,17.2,16.3c2.1,2,4.3,1.4,6.5,0.5c2.2-0.9,3.2-2.7,3.3-5.1
		c0.1-1.8-0.5-3.2-1.6-4.4c-3-3.3-6-6.7-9-10C421,556.6,420,555.7,419,554.7z"/>
	<path d="M359.3,569.5c-0.1,0.3-0.2,0.6-0.4,0.9c-4.8,5.5-9.7,10.9-15.7,15.1c-2.5,1.7-5.1,3.3-8.1,3.7c-8.8,1-14.8-2.7-18.1-10.5
		c-0.9-2.1-1.4-4.4-2-6.6c-0.5-1.9,0.1-3.7,0.7-5.4c1.3-3.6,3.5-6.6,5.9-9.4c3.3-4,7.2-7.4,11-10.8c1.4-1.2,2.5-2.7,3.8-3.9
		c5-4.9,10.1-9.9,15.1-14.8c0.8-0.8,1.3-0.7,2,0c2,2.1,3.9,4.2,5.9,6.2c0.6,0.7,0.3,1.2-0.2,1.8c-2.3,2.4-4.5,4.7-6.8,7
		c-5.8,5.7-11.7,11.4-17.5,17.1c-2.2,2.1-4.2,4.5-6.3,6.7c-0.4,0.5-0.7,1.1-1.1,1.6c-2.1,3.2-1.4,5.7,1.1,8.6c1.3,1.5,5,2.2,6.7,0.7
		c2.8-2.4,5.7-4.7,8.4-7.2c1.8-1.6,3.5-3.4,5.2-5.1c0.6-0.6,1.1-0.6,1.7-0.2c2.3,1.4,4.6,2.8,6.9,4.2
		C358.1,569.2,358.6,569.3,359.3,569.5z"/>
	<path d="M334.1,504.6c-6.2-5.6-12.3-11-16.8-18c-2.4-3.7-3.1-7.5-1.7-11.8c1.3-4.1,2.8-7.9,6.2-10.8c2.2-1.9,4.8-2.9,7.7-3.2
		c1.1-0.1,2.3-0.6,3.4-0.6c3,0,5.7,1.1,8.3,2.5c4.3,2.5,7.9,5.9,11.2,9.5c2.2,2.3,4.4,4.6,6.7,6.9c5.9,6,11.7,12,17.7,18
		c0.6,0.6,0.6,1,0.1,1.5c-2.2,2.1-4.4,4.2-6.7,6.3c-0.5,0.5-0.8,0.1-1.2-0.2c-2.4-2.4-4.8-4.8-7.3-7.2c-7.7-7.6-15.4-15.1-23.1-22.6
		c-0.6-0.6-1.3-1.1-1.9-1.7c-1.7-1.6-3.7-1.9-5.9-1.1c-2.4,0.9-4,2.3-4.6,4.9c-0.3,1.6,0.1,2.9,1,4.1c2.3,2.8,4.7,5.7,7.1,8.4
		c1.5,1.7,3.3,3.3,4.9,5c0.3,0.3,0.5,0.9,0.3,1.2c-1.7,2.9-3.4,5.7-5.1,8.5C334.5,504.3,334.3,504.4,334.1,504.6z"/>
	<path d="M394.4,568.9c-3,1.2-6,2-9.2,2.4c-9.8,1.3-19-0.2-27.6-5.1c-5.1-2.9-9.5-6.7-13.4-11.1c-0.4-0.5-0.4-0.8,0-1.2
		c2.2-2.1,4.4-4.3,6.6-6.4c0.6-0.5,1-0.2,1.4,0.3c2.6,2.9,5.6,5.4,8.9,7.4c6,3.6,12.5,5.2,19.4,5c1.5,0,3.1-0.3,4.6-0.4
		c0.3,0,0.8,0.1,1.1,0.4c2.7,2.8,5.3,5.6,7.9,8.4C394.3,568.7,394.3,568.8,394.4,568.9z"/>
	<path d="M402.1,553.2c2.4-3,4.8-5.8,6.8-8.8c4.3-6.4,6-13.6,5.9-21.3c0-1-0.2-2-0.4-3c-0.2-0.8,0.1-1.3,0.5-1.8
		c2.3-2.4,4.5-4.7,6.8-7.1c0.5-0.5,1.1-1,1.9-1.8c0.7,2.4,1.5,4.6,1.9,6.8c1.7,9.4,1,18.6-3.1,27.4c-2.9,6.2-7.1,11.5-12.1,16.2
		c-0.7,0.7-1.4,0.5-2-0.1c-1.8-1.8-3.5-3.6-5.2-5.4C402.7,553.9,402.3,553.5,402.1,553.2z"/>
	<path d="M332.5,523c0-8.6,2.9-16.3,7.8-23.3c2.5-3.6,5.5-6.9,8.7-10c0.5-0.5,0.9-0.5,1.4,0c2.1,2.2,4.2,4.3,6.2,6.5
		c0.6,0.6,0.1,1.1-0.3,1.5c-3.6,3.7-6.7,7.8-9,12.5c-1.7,3.6-2.9,7.3-3.3,11.3c-0.1,0.9,0.1,1.9,0.2,2.8c0.1,2,0.2,4,0.3,5.9
		c0,0.4-0.2,0.9-0.5,1.2c-2.6,2.5-5.2,5-7.8,7.5c-0.7,0.7-1.4,0.4-1.6-0.5c-0.7-4.5-1.4-9-2.1-13.5
		C332.4,524.3,332.5,523.7,332.5,523z"/>
	<path d="M364.6,480.1c3-0.5,5.6-1,8.3-1.3c5.9-0.6,11.8-0.7,17.6,0.6c7.6,1.6,14.1,5.3,19.8,10.7c1.6,1.5,3.1,3.2,4.8,4.9
		c-0.5,0.6-0.9,1.1-1.3,1.6c-1.8,1.8-3.7,3.5-5.6,5.3c-0.7,0.7-1.1,0.5-1.7-0.1c-5.3-5.6-11.5-9.7-19.1-11.6
		c-3.9-0.9-7.8-1-11.7-0.4c-1.8,0.3-3.2-0.1-4.4-1.6c-1.8-2.2-3.8-4.1-5.7-6.2C365.1,481.5,365,480.9,364.6,480.1z"/>
	<path d="M406.8,542.3c-3.1-2.9-6.2-5.6-9.1-8.5c-5.3-5.3-10.4-10.7-15.6-16c-0.7-0.7-0.7-1.1,0-1.7c2.2-2,4.3-4.1,6.4-6.1
		c0.5-0.5,1-0.3,1.4,0.1c1.2,1.1,2.4,2.2,3.6,3.4c5.9,6,11.7,11.9,17.6,17.9c0.3,0.3,0.5,0.7,0.5,1
		C411.6,535.9,409.3,540.4,406.8,542.3z"/>
	<path d="M387.3,526.7c2.2,2.2,4.4,4.3,6.4,6.5c1.1,1.2,1.1,1.5-0.1,2.6c-4.4,4.4-8.8,8.8-13.2,13.1c-1.8,1.8-3.7,3.5-5.5,5.3
		c-0.4,0.4-0.6,0.9-0.9,1.5c-0.4,1-1.1,1.3-2.2,1.2c-3.6-0.4-6.6-2.1-9.5-4.2c-0.6-0.4-0.3-0.8,0-1.1c1.4-1.5,2.6-3.2,4.1-4.6
		c6.7-6.6,13.4-13.2,20.1-19.8C386.8,527.1,386.9,527,387.3,526.7z"/>
	<path d="M352.2,507.3c0.3,0.2,0.7,0.4,0.9,0.6c1.5,1.5,3.1,2.9,4.6,4.4c6.4,6.5,12.7,13,19.1,19.5c0.5,0.5,0.6,1,0.1,1.5
		c-2.2,2.1-4.4,4.2-6.6,6.2c-0.2,0.2-1.1,0.1-1.4-0.1c-1-0.8-1.9-1.6-2.8-2.5c-5.5-5.6-11-11.1-16.5-16.7c-0.5-0.5-0.9-1-1.4-1.4
		c-0.9-0.7-1.1-1.6-0.9-2.8c0.7-3.1,2.4-5.8,4.2-8.3C351.7,507.6,351.9,507.5,352.2,507.3z"/>
	<path d="M397.2,497.3c-2.3,2.5-4.4,4.8-6.6,7c-6,5.9-12.1,11.8-18.1,17.7c-0.7,0.7-1.2,0.8-1.9,0.1c-2-2.1-4-4.2-6-6.4
		c-0.5-0.5-0.3-0.9,0.2-1.4c2.8-2.8,5.5-5.8,8.3-8.6c4.1-4,8.2-8,12.3-12c1-1,2.1-1.3,3.4-0.7c2,0.9,4.1,1.6,6,2.5
		C395.7,496.1,396.5,496.8,397.2,497.3z"/>
</g>
<g>
	<path d="M493.8,550.5c2.7,2.7,5.2,5.4,7.7,7.9c6.7,6.6,13.4,13.2,20.2,19.7c2.3,2.3,4.1,2.5,6.6,0.3c3.2-2.9,6.2-6,9.2-9.1
		c1.6-1.6,3.3-3.1,5-4.7c0.6-0.5,1-0.5,1.6,0.2c0.8,0.9,1.7,1.7,2.6,2.5c0.8,0.8,1.6,1.7,2.5,2.6c-1.5,1.6-2.8,3.2-4.3,4.6
		c-3.9,3.8-7.7,7.6-11.8,11.2c-4.1,3.6-8.9,3.6-13.7,1.2c-3.9-1.9-6.9-5-9.9-8.1c-4.8-4.9-9.6-9.8-14.4-14.7
		c-2.2-2.2-4.4-4.5-6.6-6.7c-0.6-0.6-0.6-1.1-0.1-1.6C490.2,554.1,491.9,552.4,493.8,550.5z"/>
	<path d="M478.8,547.8c-3.2-3.1-6.4-6.1-9.4-9.2c-2.3-2.4-4.5-4.9-6.5-7.6c-3.1-4.2-3.3-8.6-0.7-13.2c2-3.6,4.9-6.4,7.8-9.2
		c2-1.9,4-3.9,6-5.9c5.3-5.3,10.7-10.5,16-15.8c0.4-0.4,0.7-0.4,1.1,0c1.6,1.7,3.3,3.4,4.9,5.1c0.1,0.2,0.1,0.6,0,0.9
		c0,0.1-0.2,0.2-0.3,0.4c-7,7.1-14.1,14.2-21.1,21.3c-2.1,2.1-4.1,4.3-6.2,6.6c-1.6,1.7-1.8,3-0.3,4.9c2.4,3,5,5.8,7.6,8.5
		c2.1,2.2,4.3,4.3,6.5,6.4c0.6,0.6,0.6,1.2,0,1.7C482.4,544.4,480.6,546,478.8,547.8z"/>
	<path d="M565.8,506c2.1-2.2,4-4.2,5.9-6.3c2.3,2.4,4.5,4.6,6.6,6.8c2.8,2.8,5.5,5.6,8.3,8.3c0.9,0.9,1.5,1.9,2,3.1
		c2.3,5,1.5,9.7-1.6,14.1c-0.7,1-1.5,1.9-2.3,2.9c-0.8,0.9-1.6,1.8-2.5,2.5c-4.8,4.1-9,9-13.6,13.3c-3.3,3.1-6.6,6.4-9.9,9.6
		c-0.6,0.6-1.1,0.7-1.7,0.1c-1.7-1.7-3.4-3.4-5.1-5.1c0.3-0.3,0.4-0.5,0.6-0.7c7.4-7.5,14.8-14.9,22.1-22.4c1.8-1.8,3.5-3.7,5.3-5.6
		c1.4-1.5,1.6-3.1,0.4-4.7c-1.3-1.9-2.7-3.7-4.3-5.3c-2.6-2.7-5.4-5.3-8.2-8C567.3,507.7,566.6,506.9,565.8,506z"/>
	<path d="M562.8,491c-0.8,0.8-1.4,1.6-2.1,2.3c-1,1-2.1,1.9-3.1,2.9c-0.6,0.6-1,0.6-1.6,0c-2.2-2.2-4.4-4.4-6.6-6.6
		c-6.8-6.7-13.6-13.3-20.4-20c-0.9-0.8-1.7-1.6-3-1.9c-1-0.2-1.8,0-2.5,0.6c-2.6,2.3-5.2,4.5-7.7,6.8c-2.8,2.7-5.5,5.6-8.3,8.4
		c-0.6-0.5-1.1-0.9-1.6-1.4c-1.3-1.4-2.5-2.7-3.8-4.1c-0.4-0.4-0.6-0.7-0.1-1.2c4.9-5.2,9.8-10.4,15.2-15.1c3.9-3.3,11.1-3.4,15-0.6
		c3.5,2.5,6.7,5.3,9.5,8.6c2.6,3,5.6,5.6,8.5,8.4c2.1,2.1,4.2,4.2,6.3,6.3C558.6,486.7,560.7,488.8,562.8,491z"/>
	<path d="M558,483.6c-2-2.1-3.9-4.1-5.8-6.2c2-2.6,4.3-4.7,7.2-6.3c3-1.6,6.2-2.2,9.5-0.9c0.9,0.4,1.9,0.7,2.8,1.1
		c5.6,2.4,8,6.3,7.7,12.4c-0.2,3.7-1.8,6.7-4,9.5c-1.7,2.2-3.6,4.2-5.6,6.1c-2.5,2.5-5.2,4.9-7.8,7.4c-0.7,0.7-1.3,0.7-2,0
		c-1.6-1.7-3.2-3.3-4.9-5.1c0.2-0.3,0.4-0.4,0.6-0.6c4.1-4.2,8.2-8.5,12.3-12.8c0.7-0.7,1.2-1.6,1.9-2.4c1-1.2,1.1-2.8,0.6-4
		c-1-2.9-4.5-4.6-6.9-3.1c-1.8,1.2-3.4,2.7-5.1,4.1C558.4,483,558.3,483.3,558,483.6z"/>
	<path d="M485,490.9c-1.9,1.9-3.7,3.7-5.5,5.5c-0.2,0.2-0.8,0.2-1,0.1c-5.5-4-8.6-10-7.3-16.5c0.5-2.6,1.9-4.7,3.9-6.3
		c2.6-2.1,5.5-3.7,8.9-4.2c2.4-0.3,4.5,0.4,6.6,1.5c2.8,1.5,5.3,3.5,7.5,5.8c3.4,3.4,6.6,6.9,9.9,10.4c0.6,0.6,0.5,1,0,1.5
		c-1.6,1.5-3.2,3-4.7,4.6c-0.5,0.5-0.9,0.4-1.4-0.1c-2.1-2.1-4.2-4.3-6.4-6.4c-2.6-2.5-5.2-4.9-7.9-7.2c-2.3-2-4.1-1.7-6.7,0.3
		c-1.6,1.3-2,4-0.7,5.8c1.1,1.6,2.5,2.9,3.7,4.4C484.3,490.4,484.6,490.6,485,490.9z"/>
	<path d="M495.2,546.5c-0.4,0.4-0.8,0.6-1.1,0.9c-4.3,4.5-8.6,9.1-13,13.6c-1.9,1.9-1.6,4-0.6,6.1c0.9,1.9,3.7,3.5,6.2,1.8
		c1-0.7,2-1.4,2.9-2.2c0.9-0.7,1.7-1.6,2.7-2.4c0.3,0.2,0.7,0.4,0.9,0.7c1.5,1.6,3,3.1,4.5,4.7c0.4,0.4,0.4,0.7,0.1,1.1
		c-2.1,2.3-4.2,4.6-7.1,5.9c-4.3,2.1-8.6,1.6-12.7-0.6c-2.6-1.4-5.1-3.1-6.1-6.1c-1.4-4.2-1.9-8.5,0.8-12.4c1.7-2.5,3.6-5,5.7-7.2
		c3.1-3.2,6.4-6.2,9.6-9.3c0.9-0.9,1.3-0.8,2.2,0.1C491.9,543,493.5,544.6,495.2,546.5z"/>
	<path d="M547.7,553.8c4.3,4.1,8.4,8.1,12.5,12.1c0.9,0.9,2,1.8,3,2.6c1.4,1.1,2.9,1.4,4.6,0.5c1.7-0.9,2.8-2.1,2.9-4.2
		c0.1-1.5-0.3-2.8-1.3-3.9c-1-1.2-2-2.4-3.1-3.4c-0.7-0.6-0.6-1.1,0-1.7c1.7-1.7,3.3-3.5,5-5.3c3.6,3.1,7,6.1,7.9,10.7
		c1,5.2-0.1,9.7-4.4,13.3c-3.3,2.8-6.9,3.9-11.1,3.5c-2-0.2-3.7-1-5.3-2.2c-1.9-1.5-3.9-2.9-5.6-4.6c-3.5-3.4-6.9-7-10.3-10.6
		c-0.6-0.6-0.6-1.1-0.1-1.7C544.2,557.2,546,555.5,547.7,553.8z"/>
	<path d="M555.3,531.6c1.3-1.5,2.5-2.9,3.7-4.3c1.6-1.9,1.8-4.6-0.1-6.5c-3.3-3.5-6.6-6.9-10-10.3c-2.3-2.4-4.6-4.7-6.9-7.1
		c-0.4-0.4-0.4-0.7,0-1.1c1.7-1.6,3.4-3.2,5.1-4.7c0.2-0.2,0.9-0.1,1.2,0.1c3.7,3.5,7.5,7,11.1,10.7c2.2,2.2,4.3,4.7,6.3,7.1
		c0.6,0.7,1.1,1.5,1.6,2.2c1.1,1.5,1.5,3.2,1.6,5.1c0.6,6.3-2.9,10.5-7.2,14.3c-0.6,0.5-1.1,0.2-1.5-0.2
		C558.6,535,556.9,533.3,555.3,531.6z"/>
	<path d="M504.3,507.7c-1.7-1.8-3.3-3.5-4.9-5.2c-1.1-1.2-1.1-1.2,0-2.4c5.4-5.7,10.7-11.4,16.8-16.3c0.3-0.3,0.6-0.5,1-0.7
		c5.4-4.4,12.1-3.7,16.9,0.3c1.4,1.2,2.7,2.6,4,4c0.4,0.4,0.5,0.8,0,1.3c-1.6,1.6-3.3,3.2-4.9,4.8c-0.5,0.4-0.8,0.2-1.2-0.1
		c-1.3-1.1-2.5-2.4-3.9-3.4c-2.1-1.6-3.5-1.5-5.6,0c-3.5,2.5-6.5,5.7-9.5,8.8c-1.5,1.5-2.8,3.2-4.3,4.7
		C507.3,504.9,505.9,506.2,504.3,507.7z"/>
	<path d="M552.3,546.4c-6.1,6.5-12,12.7-18.7,18.3c-5.7,4.7-14.5,3.1-18.6-1.5c-0.7-0.8-1.4-1.6-2.2-2.4c-0.7-0.7-0.7-1.4,0-2.1
		c1.7-1.6,3.4-3.3,5-4.8c1,0.9,1.9,1.8,2.8,2.6c0.6,0.5,1.1,1,1.7,1.4c2.3,1.6,3.5,1.7,5.6-0.1c3.5-3.1,7-6.3,10.3-9.5
		c2.3-2.2,4.4-4.6,6.6-7c0.9-0.9,1.6-1,2.5-0.1C549,542.9,550.6,544.6,552.3,546.4z"/>
	<path d="M490,510.5c1.7,1.8,3.4,3.6,5,5.3c0.5,0.6,0.5,1,0,1.6c-1.1,1.1-2.1,2.3-3.2,3.4c-1.4,1.6-1.8,3.7-0.5,5.5
		c1.2,1.7,2.5,3.4,4,4.9c4.3,4.4,8.6,8.6,13,12.9c0.3,0.3,0.6,0.4,0.9,0.7c-0.4,0.5-0.7,0.9-1,1.2c-1.5,1.4-3,2.8-4.5,4.2
		c-0.4,0.4-0.8,0.5-1.2,0c-6.3-5.9-12.6-11.8-18.1-18.5c-2.6-3.1-2.9-6.5-2.4-10.1C482.9,517,486,513.7,490,510.5z"/>
	<path d="M532.9,550.9c-1-1-1.9-1.8-2.8-2.6c-5.4-5.4-10.7-10.9-16.1-16.3c-0.6-0.6-0.6-1.1-0.1-1.6c1.6-1.6,3.2-3.1,4.9-4.7
		c0.2-0.1,0.7-0.1,0.9,0.1c0.9,0.7,1.7,1.5,2.5,2.3c5.3,5.3,10.5,10.7,15.7,16c0.6,0.6,0.7,1.1,0.1,1.7
		C536.4,547.4,534.7,549.1,532.9,550.9z"/>
	<path d="M511.5,502.5c1-0.9,2-1.7,3-2.6c0.8-0.7,1.5-1.4,2.3-2.1c0.9-0.9,1.1-0.9,2,0c2.3,2.2,4.6,4.5,6.8,6.7
		c3.9,3.9,7.7,7.9,11.7,11.9c-1.8,1.9-3.6,3.9-5.8,5.4c-0.5,0.3-0.9,0.3-1.3-0.2c-4.7-4.8-9.3-9.6-14-14.3c-1.5-1.5-3.1-2.9-4.7-4.3
		C511.5,502.9,511.5,502.7,511.5,502.5z"/>
	<path d="M504.5,537.6c-1.2-1.1-2-1.8-2.7-2.6c-0.9-1-1.8-2-2.8-3c-0.7-0.7-0.6-1.2,0-1.8c2.6-2.6,5.1-5.2,7.7-7.8
		c3.3-3.3,6.7-6.5,10.1-9.8c0.7-0.7,1.3-0.7,1.9,0c1.5,1.6,3,3.2,4.5,4.8c0.5,0.5,0.3,0.9-0.1,1.3c-4,3.9-7.9,7.7-11.8,11.6
		C509.1,532.6,506.9,535.1,504.5,537.6z"/>
	<path d="M552.2,516.6c-0.2,0.3-0.4,0.5-0.6,0.7c-5.2,5.1-10.3,10.3-15.5,15.4c-0.9,0.9-1.8,1.7-2.7,2.6c-0.4,0.5-0.8,0.5-1.3,0.1
		c-1.6-1.7-3.2-3.3-4.7-5c-0.5-0.5-0.2-0.9,0.2-1.3c2-2.1,3.9-4.2,6-6.2c3.9-3.9,7.9-7.7,11.8-11.6c0.7-0.7,1.3-0.7,1.9,0
		c1.5,1.6,3,3.1,4.4,4.7C551.9,516.2,552,516.4,552.2,516.6z"/>
	<path d="M507.3,561.4c-0.7-0.6-1.4-1.2-2-1.9c-1-1-1.9-2.1-2.9-3.1c-0.9-1-1-1.1,0-2.1c3-3.1,6.1-6.2,9.2-9.2
		c1.9-1.9,3.9-3.7,5.8-5.6c0.5-0.5,0.8-0.6,1.3-0.1c1.6,1.6,3.1,3.3,4.7,4.9c0.6,0.6,0.2,1-0.2,1.5c-2.2,2.2-4.3,4.4-6.5,6.6
		c-2.9,2.8-5.8,5.6-8.7,8.5C507.7,561,507.6,561.1,507.3,561.4z"/>
	<path d="M549.2,492.3c-0.6,0.7-1,1.2-1.6,1.7c-4.7,4.6-9.4,9.2-14,13.9c-0.7,0.7-1.3,0.8-2,0c-1.6-1.7-3.2-3.3-4.9-5.1
		c1-1.1,1.9-2.1,2.9-3.1c4.3-4.2,8.6-8.4,12.9-12.7c0.6-0.6,0.9-0.6,1.5,0C545.6,488.8,547.4,490.5,549.2,492.3z"/>
	<path d="M487.9,505.8c1.4-1.4,2.8-2.8,4.3-4.1c1.9-1.7,1.5-2.1,3.7,0c4.8,4.8,9.6,9.7,14.3,14.6c0.1,0.1,0.1,0.2,0.2,0.4
		c-1.4,1.3-2.8,2.6-4.2,3.9c-2.1,1.9-2.1,1.9-4.1-0.1c-4.6-4.7-9.2-9.4-13.7-14.2C488.3,506.2,488.2,506.1,487.9,505.8z"/>
	<path d="M540,531.4c2.1-2,3.9-3.7,5.8-5.4c0.5-0.5,0.9,0,1.3,0.3c2.1,2,4.1,4,6.1,6c2.8,2.9,5.6,5.8,8.5,8.7
		c0.7,0.7,0.7,1.2,0.1,1.9c-1.7,1.6-3.4,3.3-5.1,4.9C551.2,542.3,545.7,536.9,540,531.4z"/>
</g>
<g>
	<path d="M112.1,160c5.6-0.3,11,0.5,16.2,2.8c6.2,2.7,11.4,6.6,15.6,11.8c3.2,3.9,5.1,8.6,6.5,13.5c1.7,5.8,1.8,11.7,1.3,17.6
		c-1.3,15-7.6,28-16.7,39.7c-8.3,10.7-18,20-29,28.1c-7.3,5.4-14.7,10.6-22.6,14.9c-1.7,0.9-2.9,1-4.6-0.1
		c-11.8-7.3-23.2-15.2-33.8-24.2c-2.6-2.2-4.7-4.9-7.2-7.3c-7.1-7-13-14.8-17.8-23.5c-4-7.1-7.2-14.6-8.3-22.8
		c-1.1-7.7-1.3-15.4,0.8-22.9c2.5-9.2,8.3-15.9,15.9-21.3c4.4-3.1,9.4-4.6,14.5-5.6c6.3-1.2,12.8-1.4,19,0.3
		c5.7,1.5,10.6,4.7,15,8.5c4.1,3.5,7.8,7.3,11.7,11c2.9,2.7,5.7,5.5,8.6,8.2c0.9,0.9,1,1,0.1,1.9c-1.6,1.6-3.3,3.2-5,4.8
		c-0.4,0.4-0.7,1.1-1.5,0.8c-0.4-0.1-0.8-0.3-1.1-0.6c-3.9-3.7-7.8-7.4-11.5-11.2c-4.2-4.4-8.7-8.3-14-11.3c-10.8-6-27-3.1-34.6,5.3
		c-3.3,3.6-6,7.7-7.2,12.5c-1.9,7.5-1.8,15.1,0.3,22.7c2.5,9.1,7.1,17.1,12.7,24.6c6.1,8.1,13.1,15.3,20.9,21.8
		c6.9,5.7,14.1,10.9,21.7,15.6c3.7,2.3,3.7,2.3,7.4,0.1c8.9-5.3,17-11.9,24.9-18.7c7.2-6.2,13.6-13.1,19.1-20.9
		c5-7.1,9-14.6,11-23.1c1.6-6.9,1.9-13.9,0.7-20.9c-1.5-8.6-6.7-14.4-14.3-18.5c-3.8-2-7.8-2.6-12-3.2c-9-1.5-16.3,1.9-22.8,7.8
		c-0.7,0.6-1.1,1.5-2.2,1.3c-0.3-0.1-0.6-0.1-0.8-0.3c-1.8-1.8-3.7-3.5-5.4-5.3c-0.9-1-0.9-1.1,0.2-2c5-4.4,10.4-8.3,16.8-10.4
		C104.3,160.1,108.1,159.9,112.1,160z"/>
	<path d="M89.7,214.3c-2.3-2.2-4.3-4.3-6.4-6.3c-0.7-0.6-0.6-1.3,0-1.9c2.5-2.6,5-5.2,7.6-7.8c2.5-2.5,5.2-4.8,7.7-7.2
		c0.2-0.2,0.4-0.4,0.5-0.6c0.3-1.6,1.4-2.6,2.7-3.3c2.9-1.5,5.8-3,8.8-4.2c1.3-0.5,3-0.2,4.5-0.2c7.8,0.3,12.3,4.9,14.9,11.7
		c1.7,4.5,1.8,9.1-0.6,13.4c-1.1,2.1-2.9,3.7-4.7,5.2c-0.6,0.5-1.1,0.5-1.6-0.2c-1.6-1.8-3.4-3.5-5.1-5.3c-0.6-0.6-0.8-1.1-0.1-1.7
		c0.6-0.6,1.2-1.3,1.7-2c2.2-2.8,1.7-8-2.5-10c-0.2-0.1-0.4-0.2-0.6-0.3c-2.1-1.2-4-1-6,0.4c-3.2,2.2-5.9,5-8.6,7.7
		C98,206,93.9,210,89.7,214.3z"/>
	<path d="M63.4,224.4c-2.2,2.3-4.4,4.7-6.7,7.1c-3-2.7-5.8-5.2-8.5-7.8c-3.9-3.9-7.7-7.9-11.5-11.9c-0.8-0.9-1.6-1.9-2.2-2.9
		c-3.3-5.2-3.7-12.8,0-18c7-9.8,19.7-11,27.8-2.4c0.3,0.4,0.7,0.7,1,1.1c-1.8,2-3.6,4-5.4,6c-0.7,0.8-1.5,0.9-2.4,0.3
		c-1.3-0.8-2.7-1.7-4.1-2.4c-2.7-1.5-6.1,0-7.3,1.9c-2.1,3.3-2.4,5.6-0.4,8.7c2.2,3.4,5.2,6.2,8.1,8.9c3.8,3.6,7.5,7.3,11.3,11
		C63.2,224.1,63.2,224.3,63.4,224.4z"/>
	<path d="M73.6,215.3c2.5,2.5,4.6,4.7,6.7,6.9c0.4,0.4,0.4,0.8,0,1.2c-6,6.3-11.8,12.6-18.6,18.1c-2.7,2.2-5.8,3.3-9.3,3.2
		c-2.1-0.1-4.2,0-6.3-0.4c-2.8-0.5-5-2.3-6.9-4.4c-5.1-5.5-5.9-12-3.8-18.9c0.5-1.7,1.5-3.2,2.9-4.4c0.4-0.4,0.7-0.5,1.2-0.1
		c1.8,1.7,3.6,3.4,5.3,5.2c0.7,0.7,0.9,1.4,0.4,2.4c-1.4,3-0.6,7.1,1.7,9.4c1.9,1.9,4.8,2.4,7.2,0.8c1.9-1.2,3.6-2.8,5.2-4.3
		c3.5-3.4,6.9-6.9,10.3-10.4C71,218.3,72.2,216.9,73.6,215.3z"/>
	<path d="M99.6,240.5c2.2-2.6,4.4-4.9,7-6.7c0.3-0.2,0.8-0.1,1.1,0c2.7,1.5,5.2,1,7.7-0.3c2.5-1.3,4.6-6.1,2.1-9.1
		c-2.7-3.2-5.4-6.4-8.3-9.4c-2.6-2.8-5.6-5.3-8.3-7.9c-1-1-1-1.9,0-2.8c2-1.9,4.1-3.8,6.2-5.7c1.8,1.7,3.6,3.4,5.3,5.1
		c4.6,4.5,9.1,9.1,13.1,14c5.5,6.7,4.4,17.6-2.8,23.1c-0.2,0.2-0.5,0.4-0.7,0.6c-3,2.5-6.5,3.3-10.3,3.5c-3.3,0.2-6.3-0.6-9.2-2.1
		C101.5,242,100.6,241.2,99.6,240.5z"/>
	<path d="M81.5,256.7c-5.4-5.5-10.8-11-16.3-16.6c1.8-2.2,3.9-4.5,6.3-6.4c0.5-0.4,0.9-0.3,1.4,0.2c2.7,2.6,5.4,5.2,8.2,7.8
		c0.2,0.2,0.5,0.5,0.7,0.7c2.6-2.7,5.1-5.3,7.6-7.9c5.6-5.6,11.2-11.2,16.8-16.7c0.2-0.2,0.4-0.4,0.6-0.6c1.1-1.1,1.1-1.1,2.3-0.1
		c1.8,1.6,3.6,3.3,5.4,4.9c0.6,0.5,0.7,1.1,0,1.7c-10.9,10.9-21.8,21.8-32.7,32.7C81.9,256.4,81.7,256.5,81.5,256.7z"/>
	<path d="M47.8,207.1c3.2-3.3,6.3-6.5,9.4-9.7c5.1-5.1,10.2-10.1,15.3-15.1c1-1,1-1,2.1,0c2,2,4,4,6.1,6.1c-0.2,0.2-0.3,0.3-0.4,0.5
		c-8.1,8.1-16.3,16.1-24.4,24.2c-1,1-1.1,1-2.1,0C51.7,211.2,49.8,209.2,47.8,207.1z"/>
	<path d="M97.8,224.3c-2.3,2.3-4.5,4.6-6.8,6.9c-1.8-1.7-3.6-3.5-5.4-5.2c-6.2-6.2-12.5-12.3-18.7-18.6c-1.8-1.8-1.8-1.9,0.1-3.7
		c1.5-1.5,3.1-3,4.6-4.5c0.4-0.4,0.8-0.5,1.3,0C81.1,207.6,89.5,215.9,97.8,224.3C97.8,224.3,97.8,224.3,97.8,224.3z"/>
</g>
<path d="M224.7,324.2c3.5-2.6,6.9-5.4,10.5-7.9c3.7-2.5,7.7-4.3,12.1-5c7.4-1.1,14.5-0.2,21.2,3.2c12.1,6,19.5,15.8,22.8,28.7
	c3.8,14.8,1.4,28.9-6.3,42.1c-4.4,7.5-10.1,14-16.6,19.8c-7.9,7-15.8,13.9-23.8,20.7c-4.5,3.8-9.3,7.4-14,11.1
	c-1.3,1-2.8,1.8-4.2,2.6c-1.3,0.8-2.7,0.8-4-0.1c-3.4-2.3-7-4.5-10.2-7.1c-12.7-10.1-25-20.7-36.5-32.3c-3.7-3.7-7.4-7.4-10.1-11.9
	c-4.5-7.6-8.1-15.6-9-24.6c-1-9.7-0.3-19.1,4-28c4.3-8.8,10.3-16.2,19.2-20.6c12-6,23.9-5.7,35.2,2.1
	C218.4,319.3,221.5,321.8,224.7,324.2z M239.2,345.6c-1.4-1.4-2.7-2.8-4-4.1c-3.9-3.9-7.7-7.8-11.6-11.5c-3.1-2.9-6.2-5.9-9.6-8.4
	c-12.6-9.3-26.9-7.9-37,0.3c-12.8,10.4-17.9,24.2-16.2,40.5c1.3,11.8,6.6,22,14.5,30.7c3.5,3.9,7.3,7.5,11,11.2
	c11.4,11.2,23.9,21,36.6,30.5c1.4,1,1.5,1,2.9,0c12-8.4,23.1-17.8,33.8-27.8c5-4.7,10.2-9.3,14.7-14.4c9.5-10.7,15-23,14.5-37.6
	c-0.3-8.5-2.4-16.3-7.4-23.2c-4.1-5.7-8.7-10.7-15.4-13.5c-5.5-2.3-11.1-3.5-17.1-2.7c-4.8,0.7-9.1,2.7-13,5.6
	c-3.2,2.4-6.3,5-9.5,7.6c1.7,1.7,3.2,3.3,4.5,4.8c3-2.4,5.7-4.8,8.6-6.9c9.9-7.3,21.7-5.4,29.4,1c7.5,6.2,11.6,14.5,12.9,24.1
	c0.9,7-0.1,13.8-2.7,20.3c-1.6,4.1-3.1,8.4-6,11.9c-6.1,7.5-13,14.2-20.2,20.6c-6.3,5.6-13,10.8-19.5,16.2c-3,2.4-6,4.7-9.1,7.1
	c-0.4-0.3-0.8-0.5-1.1-0.8c-9.3-6.8-18.1-14.1-26.5-22c-6-5.7-12.1-11.3-17.7-17.5c-7.3-8.2-11.6-17.9-12.1-29.1
	c-0.4-8.4,1.4-16.4,6.3-23.3c4-5.6,8.7-10.2,15.7-12.1c6.8-1.8,13.2-1.4,19,2.7c3.3,2.3,6.6,4.8,9.5,7.6c5.5,5.3,10.7,10.8,16,16.3
	c0.3,0.3,0.6,0.6,0.9,0.9C236,348.8,237.5,347.3,239.2,345.6z M224.4,397.8c-3.2-3.3-6.4-6.6-9.5-9.8c-1.8,1.7-3.4,3.2-4.9,4.5
	c5,5.1,9.9,10.1,14.2,14.5c1.5-1.2,2.8-2.2,4.1-3.3c0.4-0.3,0.7-0.6,1-0.9c8.1-8.1,16.1-16.1,24.2-24.2c0.6-0.6,1.1-1.2,1.6-1.8
	c0.5-0.5,0.4-0.9-0.1-1.5c-1.2-1.3-2.4-2.6-3.8-4.2c-4.7,4.1-9,8.8-13.5,13.2C233.5,388.9,229,393.3,224.4,397.8z M205.6,345.5
	c-1.5-0.5-2.7-1-3.9-1.3c-4.5-1.1-8.8-1.1-12.8,1.6c-2.9,2-4.5,4.9-5.8,8.1c-1.7,4.2-1.2,8.1,1,11.9c1.9,3.3,4.5,6.1,7.2,8.8
	c1.9,1.9,3.9,3.7,5.8,5.5c1.3,1.2,2.6,2.4,4,3.8c1.3-1.5,2.5-2.9,3.8-4.3c0.6-0.7,0.4-1.2-0.2-1.9c-2.6-2.5-5.3-5-7.8-7.7
	c-2.2-2.4-4.3-4.9-6.4-7.4c-1.2-1.4-1.7-3.1-1.2-4.8c0.5-1.7,1.2-3.3,2.1-4.8c1.1-1.8,2.9-2.6,5-2.5c1.3,0,2.7,0.2,4,0.3
	c0.3,0,0.7,0,0.8-0.1C202.7,349,204.1,347.4,205.6,345.5z M184.3,371.9c-0.3,0.6-0.9,1.5-1.3,2.4c-1.1,2.9-1.2,5.9-0.5,8.8
	c2,8.7,12.1,14.4,21.6,10c3.6-1.7,6.3-4.4,8.9-7.4c0.6-0.7,1.2-1.3,1.8-1.9c2.6-2.6,5.2-5.2,7.6-7.6c-1.7-1.8-3.1-3.4-4.8-5.1
	c-0.9,0.9-1.6,1.8-2.4,2.6c-4.5,4.3-9,8.6-13.5,12.9c-1.3,1.2-3,1.5-4.4,1.2c-5.3-1-8.9-3.8-7.9-10c0-0.2,0.1-0.4,0.1-0.6
	c-0.1-0.5-0.2-1.1-0.5-1.5C187.4,374.6,185.9,373.3,184.3,371.9z M264.7,366.8c1.6-2.8,2.3-5.7,2.3-8.8c-0.1-9.6-10.3-15.8-18-14.2
	c-3.5,0.7-6.4,2.6-8.9,5c-3.8,3.6-7.4,7.4-11,11.1c-0.8,0.8-1.5,1.5-2.3,2.2c1.7,1.8,3.2,3.5,4.7,5.1c1.3-1.2,2.3-2.1,3.3-3.1
	c3.1-3.1,6-6.2,9.1-9.2c1.3-1.3,2.7-2.5,4.3-3.4c4.8-2.5,10.2,0,11.4,5.2c0.3,1.3,0.2,2.8,0.2,4.2c0,0.5-0.1,1.2,0.2,1.5
	C261.4,363.9,263.1,365.3,264.7,366.8z M243.4,359.4c4.2,4.2,8.3,8.2,12.3,12.3c0.7,0.7,1.4,1.5,2,2.2c2.5,2.9,2.9,6.1,1.1,9.6
	c-1.2,2.5-3.1,4.1-5.9,4.4c-1.2,0.1-2.4-0.1-3.7-0.1c-0.3,0-0.8-0.1-1,0.1c-1.5,1.6-3,3.2-4.7,5c0.9,0.4,1.6,0.9,2.4,1
	c2.2,0.3,4.4,0.7,6.6,0.8c10.1,0.3,15.2-10.6,14.1-17c-0.7-4.1-2.8-7.5-5.7-10.4c-4-4-8.1-7.9-12.1-11.8c-0.6-0.6-1-0.5-1.6,0
	C246.1,356.6,244.8,358,243.4,359.4z M210,359c8.4,8.5,16.4,16.6,24.1,24.3c1.8-1.5,3.5-2.9,5.1-4.3c-0.2-0.3-0.2-0.4-0.3-0.5
	c-7.8-7.8-15.6-15.6-23.4-23.4c-0.5-0.5-1-0.4-1.5,0C212.7,356.5,211.3,357.8,210,359z M197.7,366.8c3.9-3.7,7.8-7.1,11.5-10.7
	c3.9-3.8,7.8-7.8,11.6-11.7c0.6-0.6,1.1-1.3,1.7-1.9c-1.7-1.6-3.2-3.1-4.6-4.5c-8,8-16.1,16.1-24.3,24.3
	C195,364,196.6,365.6,197.7,366.8z"/>
</svg>
