<?xml version="1.0" encoding="utf-8"?>
<!-- Generator: Adobe Illustrator 21.0.0, SVG Export Plug-In . SVG Version: 6.00 Build 0)  -->
<svg version="1.1" id="Calque_1" xmlns="http://www.w3.org/2000/svg" xmlns:xlink="http://www.w3.org/1999/xlink" x="0px" y="0px"
	 viewBox="0 0 600 600" style="enable-background:new 0 0 600 600;" xml:space="preserve">
<style type="text/css">
	.st0{fill:#E20A13;}
</style>
<g id="XMLID_16_">
	
		<image style="overflow:visible;opacity:0.47;" width="622" height="548" xlink:href="432FC7B05641E73C.png"  transform="matrix(1 0 0 1 -7.3641 28.6359)">
	</image>
	<g>
		<path class="st0" d="M598.2,304.9c0.4-18.1-7.4-35.4-23.1-51.7c0-15.4-12.5-28-28-28c-2.6,0-5.2,0.3-7.7,1.1
			c-9.6-5.6-20.2-10.7-31.4-15.4c-7.5-3.1-16-6.2-25.8-9.5c21-75.9,13.3-131.9-21.4-154.1c-36.3-23.3-96.4-2.8-160.8,55.7
			c-64.4-58.4-124.5-79.1-160.9-55.7c-22.1,14.1-33.4,42.1-33,81c-6.9,5.2-11,13.4-11,22.2c0,11.1,6.6,20.9,16.4,25.4
			c1.2,5.9,2.7,12.2,4.6,19.2C44.4,216.9,2.9,252,2,292c-0.8,36,31.2,69.3,90.1,94c7.5,3.2,16,6.3,25.9,9.5
			c-2.8,9.9-4.9,18.7-6.5,26.8C99.1,485,109,530.1,139.3,549.6c36.5,23.3,96.5,2.7,160.9-55.8c46.6,42.2,91,65.4,125.6,65.5
			c13.3,0,25.1-3.3,35.2-9.7c30.3-19.4,40.1-64.6,27.7-127.2c-1.2-6.1-2.8-12.9-4.8-20.5C555.8,380,597.3,345,598.2,304.9z
			 M445.8,71.1c23,14.7,26.3,60.1,9.2,122.1c-26.8-7.1-56-12.5-87-15.9c-15.4-19.8-31.4-38.1-47.5-54.5
			C372.4,76,421.4,55.6,445.8,71.1z M325,355.7c0.1,0.4,0.1,0.8,0.1,1.3c0,4.6-3.8,8.3-8.4,8.2h-33.2c-0.4,0-0.8,0-1.2-0.1
			c-4.5-0.6-7.7-4.8-7.1-9.4l6.4-44.9c-14.2-7-23.2-21.5-23.1-37.4c0.1-22.9,18.8-41.5,41.7-41.4c22.9,0.1,41.5,18.8,41.4,41.7
			c-0.1,15.7-9,30-23,37L325,355.7z M194.4,230.7c-7.7,12-15.1,24.3-22,36.6c-8-17.5-14.8-34.9-20.5-52.1
			c18.7-4.3,38.7-7.7,59.7-10.1C205.6,213.6,199.8,222.1,194.4,230.7z M194.3,366.2c4.7,7.3,9.5,14.5,14.7,21.9
			c-19.8-3.1-38.5-6.9-55.8-11.4c5.4-15.5,11.7-31.3,19-47.3C179.3,342,186.7,354.3,194.3,366.2z M405.8,366.2
			c7.7-12,15.1-24.3,22.1-36.8c8,17.6,14.9,35.1,20.6,52.3c-18.8,4.4-38.9,7.8-60,10.2C394.6,383.3,400.4,374.8,405.8,366.2z
			 M427.8,267.3c-6.9-12.3-14.3-24.6-22-36.6c-4.7-7.3-9.6-14.6-14.7-21.9c19.6,3,38.3,6.8,55.6,11.4
			C441.4,235.6,435.1,251.4,427.8,267.3z M329.1,174c-9.3-0.6-17.9-0.9-26.3-1.2c-5.4-0.1-10.8-0.2-16.2-0.2
			c-4.9,0-9.7,0.1-14.5,0.2c9.2-10.8,18.5-21,28-30.5C309.9,152.3,319.7,162.9,329.1,174z M154.5,71.1
			c24.3-15.5,73.3,4.9,125.3,51.7c-15.4,15.7-30.7,33.1-45.5,51.8c-32.4,2.3-62.7,6.8-90.5,13.2c-1.3-5-2.5-10-3.6-15.2
			c6.8-5.2,11-13.4,11-22.1c0-11.1-6.7-21.1-16.5-25.5C134.7,105.1,138.4,81.3,154.5,71.1z M126.3,368.6c-8.9-2.9-16.6-5.8-23.3-8.6
			c-46.1-19.3-73.4-44.5-72.8-67.4c0.6-26.4,35.5-52.4,94-70.1c8,24.1,18.7,49.6,31.8,76C144,322.7,134,346.2,126.3,368.6z
			 M154.5,525.8c-19.3-12.3-25.1-49-15.3-98c1.4-7.2,3.3-15.1,5.9-24.2c26.8,7.2,56,12.5,87.2,16c15.4,19.8,31.4,38.2,47.5,54.6
			C227.8,521,178.9,541.5,154.5,525.8z M271.1,422.9c9.4,0.6,17.9,0.9,26.3,1.1c10.3,0.2,20.6,0.2,30.7,0c-9.2,10.8-18.5,21-28,30.6
			C290.3,444.7,280.6,434.1,271.1,422.9z M445.8,525.8c-24.4,15.6-73.4-4.9-125.3-51.6c15.4-15.7,30.7-33.1,45.4-51.9
			c32.4-2.3,62.8-6.8,90.8-13.3c1.8,7,3.3,13.1,4.4,18.7C470.8,476.8,465.1,513.4,445.8,525.8z M475.8,374.5
			c-8-24.5-18.7-50-31.6-76c12-24,21.9-47.6,29.7-70.1c8.9,3,16.5,5.7,23.3,8.6c8,3.4,15.6,6.9,22.6,10.7c-0.3,1.8-0.6,3.7-0.6,5.5
			c0,15.4,12.5,28,27.9,28c4.3,0,8.6-1.1,12.4-3c7.2,8.9,10.7,17.6,10.5,26.1C569.5,330.8,534.4,356.7,475.8,374.5z"/>
	</g>
</g>
</svg>
